<?xml version="1.0" encoding="UTF-8"?>
<svg width="478.83" height="138.54" version="1.1" viewBox="0 0 126.68991 36.656375" xmlns="http://www.w3.org/2000/svg" xmlns:cc="http://creativecommons.org/ns#" xmlns:dc="http://purl.org/dc/elements/1.1/" xmlns:rdf="http://www.w3.org/1999/02/22-rdf-syntax-ns#">
<defs>
<linearGradient id="a" x1="169.98" x2="169.98" y1="74.393" y2="166.74" gradientTransform="matrix(1.6442,0,0,1.6442,-12.608,-57.352)" gradientUnits="userSpaceOnUse">
<stop stop-color="#b3b3b3" offset="0"/>
<stop stop-color="#fff" offset=".51648"/>
<stop stop-color="#b3b3b3" offset="1"/>
</linearGradient>
</defs>
<metadata>
<rdf:RDF>
<cc:Work rdf:about="">
<dc:format>image/svg+xml</dc:format>
<dc:type rdf:resource="http://purl.org/dc/dcmitype/StillImage"/>
<dc:title/>
</cc:Work>
</rdf:RDF>
</metadata>
<g transform="translate(-6.3203 -18.542)">
<g transform="matrix(.43504 0 0 .43504 -3.3358 -15.174)" stroke="#000" stroke-opacity=".98525" stroke-width="7.2982" style="paint-order:stroke markers fill" aria-label="fishtheke">
<path d="m65.755 77.502c-3.7524 0-8.3511 0.69554-12.467 3.6586-4.1154 2.963-7.4371 8.0665-9.1156 15.763l-0.0036 0.01188-2.6204 12.393-5.5295 26.139c-2.7095 0.88432-5.4942 1.8809-8.0097 3.5766-3.1479 2.1221-5.8133 5.8161-5.8133 10.454 0 3.5576 1.4434 6.8536 3.9092 9.0312s5.7729 3.2322 9.2938 3.2322c3.0202 0 6.7188-0.76067 9.9887-3.2868 3.2691-2.5256 5.8829-6.7137 7.1247-12.709l8.1879-38.697h1.7438l-3.6515 17.257-0.0071 0.0333c-0.39032 2.0296-0.7044 3.8777-0.7044 5.729 0 3.9207 1.1783 7.3152 3.4662 9.6109s5.422 3.2547 8.4575 3.2547c2.845 0 7.2415-0.83532 11.338-4.0696 2.5687 2.3974 6.1861 4.0696 10.685 4.0696 4.4446 0 9.8974-1.2703 14.045-5.185 0.13606-0.0784 0.28996-0.1911 0.42763-0.27202l-1.0679 5.0056h18.563l5.7967-27.397c0.43182-1.4379 1.0028-2.6041 1.5276-3.3771-0.13395 1.793-0.75318 4.8401-1.5311 8.113-0.86636 3.6448-1.8293 7.3546-1.8293 10.774 0 2.8344 0.73358 5.9275 2.896 8.3981 2.1624 2.4706 5.6619 3.9401 9.8176 3.9401 2.7097 0 6.4869-0.91323 9.9732-3.8415 0.45455 0.53897 0.95616 1.0266 1.5026 1.4539 2.1667 1.6943 4.8348 2.3876 7.4538 2.3876 1.5546 0 3.6022-0.30321 5.7825-1.0429l-0.12591 0.59155h18.563l5.7967-27.397c0.43181-1.4379 1.0028-2.6041 1.5276-3.3771-0.13396 1.793-0.75318 4.8401-1.5311 8.113-0.86637 3.6448-1.8293 7.3546-1.8293 10.774 0 2.8344 0.73358 5.9275 2.896 8.3981 2.1624 2.4706 5.6619 3.9401 9.8176 3.9401 2.88 0 6.957-0.9967 10.615-4.3808 0.80936 0.85835 1.6914 1.6351 2.6929 2.2248 2.6556 1.564 5.7456 2.156 9.0075 2.156 4.507 0 8.4642-1.2296 11.875-3.1621l-0.5773 2.7107h18.564l4.3428-20.536c0.59137-0.42118 1.1429-0.82543 1.5098-1.0073-0.0158 0.55997-0.0565 1.199-0.17818 1.726l-7e-3 0.0309-0.64857 3.0528-2e-3 0.0131c-0.34409 1.6774-0.52621 3.2774-0.52621 4.7574 0 3.5207 1.1527 6.8973 3.6384 9.175 2.4857 2.2776 5.917 3.2393 9.7154 3.2393 2.5176 0 6.6117-0.87968 10.365-4.3012 0.81889 0.8521 1.7102 1.62 2.7154 2.2023 2.6197 1.5174 5.6481 2.0989 8.8198 2.0989 3.613 0 7.3929-0.73447 10.566-3.0872 3.173-2.3528 5.4121-6.2145 6.3396-11.305l1.9041-10.447-5.1085 6.1697c-2.4404 2.9474-8.0289 4.0732-9.4879 4.0732-0.66738 0-0.59059-0.0424-0.645-0.10453-0.0434-0.0496-0.28227-0.66882-0.39437-1.8222 9.5198-1.9316 17.815-9.2988 17.815-19.4 0-2.4309-0.52593-5.3255-2.6418-7.607-2.1158-2.2815-5.4409-3.4151-9.5076-3.4151-9.327 0-15.872 5.7694-19.507 12.244-3.4512 6.1476-4.7623 12.918-4.8904 17.978-0.39585 0.71228-0.79193 1.369-1.0346 1.6024 0.0336-0.14882 0.0157-0.20778 0.0653-0.39793l0.0143-0.0582 0.88139-3.9021 1e-3 -6e-3c0.29623-1.333 0.38729-2.5909 0.38723-3.7251 0-3.1323-0.85406-6.2719-2.9435-8.7272-0.6692-0.78635-1.5022-1.4298-2.3995-2.0015l17.737-12.33h-20.542l-7.9325 6.2457 4.7383-22.329-19.077 2.58-4.0232 18.874c-0.39851-0.91946-0.8962-1.8197-1.6499-2.6323-2.1161-2.2813-5.4409-3.4151-9.5076-3.4151-9.2779 0-15.807 5.7094-19.448 12.14-3.4063 6.0174-4.737 12.642-4.9248 17.685-0.48081 0.93873-0.96512 1.7651-1.2532 2.0407-0.0631 0.0604-0.10652 0.02-0.14967 0.0606 0.14795-1.4341 0.79736-4.3472 1.6369-7.6415 0.94042-3.6902 1.9754-7.7222 1.9754-11.57 0-3.8039-1.2433-7.1652-3.623-9.3472s-5.5165-2.991-8.6024-2.991c-1.0408 0-2.3306 0.21369-3.6895 0.56898l3.4875-16.353-19.082 2.5812-2.8794 13.504h-2.213l2.7772-12.851-19.082 2.5812-2.251 10.27h-2.5527l-2.1548 10.383h2.5301l-3.0647 14.33c-0.63194 2.2878-0.38213 1.6662-0.63194 2.2878-0.76761 1.9101-1.4982 3.3158-2.0158 3.9354-0.21706 0.25987-0.30879 0.3601-0.41218 0.44069 0.12411-1.3862 0.79871-4.4016 1.657-7.7697 0.94042-3.6902 1.9754-7.7222 1.9754-11.57 0-3.8039-1.2433-7.1652-3.623-9.3472s-5.5165-2.991-8.6024-2.991c-1.0408 0-2.3306 0.21369-3.6895 0.56898l3.4875-16.353-5.1398 0.69608-13.942 1.8851-7.4538 34.966c-0.32312-3.8796-0.75033-9.3967-1.2235-20.341l-0.17224-3.9817-17.653 2.3318-0.69846 2.2153c-2.3025 7.3034-4.8946 14.307-8.8388 21.481-2.3348 1.5866-4.0802 4.2125-4.6243 7.5536-0.30314 0.2696-0.57407 0.50179-0.81605 0.60581 2.1369-10.374 4.3937-20.905 6.595-31.327h-2.2795c1.4428-1.7156 2.2937-4.0664 2.2937-6.6579 0-4.9586-3.112-8.7959-6.6532-10.504-3.5412-1.7083-7.4275-2.0217-10.801-2.0217zm-0.2945 12.452c-0.17447 0.70052-0.27083 1.4126-0.27083 2.1429 0 1.6721 0.56186 3.2916 1.4409 4.5887h-3.7988l0.40506-1.9469 0.0036-0.019c0.35419-1.8017 1.0386-3.4475 1.8115-4.3998 0.13739-0.16928 0.277-0.23102 0.40862-0.36586zm105.19 17.115h2.1714c-1.3535 5.5778-2.1583 11.535-3.7715 16.946-0.66184 2.2417-1.9394 3.503-2.8128 3.9686 0.0275-0.17783 0.018-0.36936 0.0642-0.54641l0.0202-0.0796zm68.505 11.818c-0.27964 1.2227-0.29301 2.0371-0.49412 3.7132-3.8119 4.2151-6.1995 6.5855-10.912 6.5855-1.4334 0-1.6004-0.22219-1.5406-0.16036 0.0586 0.0607-0.35424-0.50227-0.36942-2.5824 5.1978-1.0369 9.9858-3.7044 13.316-7.5559z" color="#000000" color-rendering="auto" dominant-baseline="auto" image-rendering="auto" shape-rendering="auto" solid-color="#000000" stroke="none" style="font-feature-settings:normal;font-variant-alternates:normal;font-variant-caps:normal;font-variant-ligatures:normal;font-variant-numeric:normal;font-variant-position:normal;isolation:auto;mix-blend-mode:normal;paint-order:stroke markers fill;shape-padding:0;text-decoration-color:#000000;text-decoration-line:none;text-decoration-style:solid;text-indent:0;text-orientation:mixed;text-transform:none;white-space:normal"/>
</g>
</g>
<g transform="translate(-6.3203 -18.542)">
<path transform="scale(.26458)" d="m95.51 76.08c-10.885 0-24.553 3.9577-29.625 27.213l-4.3058 20.358-9.7957 46.315c-10.762 3.4017-21.895 7.1738-21.895 18.492 0 8.7207 6.4935 14.164 15.709 14.164 7.9785 0 18.617-3.8965 22.266-21.523l14.473-68.404h10.143l0.99023-5.0723h-10.143l2.1641-10.391c1.4225-7.2363 5.3197-14.287 13.422-14.287 4.082 0 6.8646 1.6087 6.9883 5.0723-0.1237-0.1237-0.61784-0.125-1.0508-0.125-2.6595 0-4.2676 3.2786-4.2676 6.1855 0 5.4427 3.8965 6.8027 7.6074 6.8027 5.1953 0 10.02-2.6595 10.02-10.205 0-12.184-12.556-14.596-22.699-14.596zm109.76 6.1855-18.74 2.5352-13.529 63.457h-0.33985c-2.4121 2.1647-5.4427 4.2064-9.0918 6.3711 0.37109-1.4225 0.49414-2.9069 0.49414-4.8242 0-8.4733-1.3607-13.174-2.7832-46.078l-18.74 2.4746c-3.9583 12.555-8.4733 24.862-15.586 37.541-3.3307 1.5745-6.5915 5.6443-6.7266 11.387-2.1913 2.6774-4.978 4.3242-7.8984 4.3242-3.5254 0-5.1953-1.1758-5.1953-4.7012 0-1.2988 0.1237-2.6595 0.55664-4.082l9.0918-43.047h-18.244l-8.5977 40.635c-0.61849 3.2161-1.0508 5.9987-1.0508 8.2871 0 10.638 5.998 15.154 13.605 15.154 4.7296 0 12.527-1.4052 19.203-9.5527 2.4351 5.2585 7.9444 9.5527 17.008 9.5527 6.4941 0 14.597-1.9792 19.916-7.6074 4.0336-2.311 8.4959-5.3068 12.998-9.3574l-3.459 16.223h18.244l8.5977-40.635c1.9173-6.4942 5.3197-11.689 9.8965-11.689 3.0306 0 4.5762 2.1647 4.5762 6.4941 0 8.1022-5.6895 23.688-5.6895 32.285 0 7.2363 3.7715 14.287 14.904 14.287 5.0729 0 11.864-1.5093 17.918-11.109 1.3419 7.7414 6.6488 11.109 13.207 11.109 4.5383 0 11.902-1.2932 18.389-8.5957l-1.6738 7.8535h18.244l8.5977-40.635c1.9173-6.4942 5.3197-11.689 9.8965-11.689 3.0306 0 4.5762 2.1647 4.5762 6.4941 0 8.1022-5.6895 23.688-5.6895 32.285 0 7.2363 3.7715 14.287 14.904 14.287 5.1319 0 12.018-1.5523 18.125-11.455 2.6242 8.0322 9.3205 11.455 18.566 11.455 12.745 0 22.167-6.7793 29.08-15.238l-3.0898 14.496h18.246l6.6172-31.297c3.5254-2.9069 6.433-4.6992 9.3398-4.6992 3.4017 0 4.5762 2.4121 4.5762 6.123 0 1.3607-0.123 3.0306-0.49414 4.6387l-1.0508 4.9473c-0.49481 2.4121-0.74219 4.6999-0.74219 6.6172 0 9.2155 5.4427 14.412 15.957 14.412 4.3163 0 11.408-1.2543 17.686-11.143 2.718 7.8092 9.3858 11.143 18.324 11.143 10.267 0 19.235-4.1439 21.895-18.74-4.0202 3.5872-10.019 6.7402-14.967 6.7402-4.3913 0-7.8555-2.4115-7.8555-10.514 0-1.1752 0.12301-2.4114 0.30859-3.834 15.153-0.98957 29.131-11.999 29.131-26.719 0-6.3086-2.6582-12.123-13.977-12.123-25.977 0-34.203 30.492-34.203 45.088 0 0.13924 0.0122 0.26471 0.0137 0.40234-2.1776 4.523-4.6626 7.4531-8.9961 7.4531-3.9583 0-4.9473-2.1654-4.9473-4.7012 0-1.4225 0.2461-2.6595 0.61719-4.082l1.4238-6.3086c0.37109-1.6699 0.49421-3.278 0.49414-4.8242 0-8.1022-4.4531-14.844-13.916-14.844-1.4225 0-2.7826 0.18555-4.2051 0.55664l25.357-17.627h-12.555l-24.432 19.234 9.4629-44.592-18.74 2.5352-13.363 62.677c-0.50426 0.78033-0.35386 0.58386-0.50426 0.78033-6.4323 7.1126-12.371 12.803-22.391 12.803-6.0612 0-9.1524-2.0417-9.1524-10.639 0-1.4844 0.1849-3.153 0.3086-5.0703 15.153-0.98957 29.131-11.999 29.131-26.719 0-6.3086-2.6602-12.123-13.979-12.123-25.842 0-34.108 30.162-34.193 44.846-2.2524 4.8909-4.7643 8.0977-9.3008 8.0976-3.8965 0-5.0703-2.166-5.0703-5.3203 0-7.1126 6.123-22.45 6.123-32.717 0-10.143-5.9994-14.287-14.102-14.287-3.8965 0-9.3405 0.98958-14.783 7.0508l6.8047-31.914-18.74 2.5352c-5.9696 19.623-6.9456 44.929-13.808 63.457-1.9173 6.4941-6.4935 11.195-11.441 11.195-3.5254 0-5.1328-1.1758-5.1328-4.7012 0-1.2988 0.123-2.6595 0.49414-4.082l8.1016-37.975h7.6074l0.99023-5.0723h-7.6074l4.3301-20.039-18.74 2.5352-3.8359 17.504h-4.1426l-1.0527 5.0723h4.207c-2.2208 11.547-4.8398 25.546-7.9316 35.562-2.6595 6.6178-5.196 11.195-10.639 11.195-3.8965 0-5.0703-2.166-5.0703-5.3203 0-7.1126 6.123-22.45 6.123-32.717 0-10.143-5.9994-14.287-14.102-14.287-3.8965 0-9.3405 0.98958-14.783 7.0508zm163.94 30.924c2.4121 0 3.1543 2.041 3.1543 5.1953 0 10.514-8.7207 20.286-18.369 20.904 2.4121-12.555 8.8444-26.1 15.215-26.1zm114.57 0c2.4121 0 3.1543 2.041 3.1543 5.1953 0 10.514-8.7201 20.533-18.492 20.904 2.6595-12.061 8.9674-26.1 15.338-26.1zm-340.5 6.7422c1.4225 19.482 2.4121 23.44 2.4121 29.996 0 8.8444-5.4414 11.752-11.008 11.752-5.3313 0-7.5375-2.6753-7.7148-8.1172 0.0585-0.12661 0.11388-0.26228 0.17187-0.39062 0.68713 1.1151 1.972 1.332 3.2129 1.332 3.4635 0 5.5664-3.1537 5.5664-6.2461 0-2.1029-1.2363-3.5247-2.9062-4.3906 4.2057-8.1022 7.7298-15.71 10.266-23.936zm-92.369 54.18-1.5449 7.3594c-1.4844 7.2363-4.763 9.8965-7.2988 9.8965-1.4225 0-5.1953-0.80469-5.1953-5.0723 0-5.4427 5.9368-9.6478 14.039-12.184z" fill="url(#a)" style="paint-order:stroke markers fill"/>
</g>
</svg>
