<?xml version="1.0" encoding="UTF-8"?>
<svg width="540" height="270" version="1.1" viewBox="0 0 142.875 71.437502" xmlns="http://www.w3.org/2000/svg" xmlns:cc="http://creativecommons.org/ns#" xmlns:dc="http://purl.org/dc/elements/1.1/" xmlns:rdf="http://www.w3.org/1999/02/22-rdf-syntax-ns#" xmlns:xlink="http://www.w3.org/1999/xlink">
<defs>
<linearGradient id="n" x1="30.296" x2="64.477" y1="74.261" y2="74.261" gradientTransform="matrix(5.5746 -5.5746 5.5746 5.5746 -197.53 162.41)" gradientUnits="userSpaceOnUse" xlink:href="#a"/>
<linearGradient id="a">
<stop stop-color="#187dcd" offset="0"/>
<stop stop-color="#00c6de" offset="1"/>
</linearGradient>
<linearGradient id="o" x1="59.13" x2="84.823" y1="71.836" y2="71.836" gradientTransform="matrix(5.5099 -5.5099 5.5099 5.5099 -202.36 134.05)" gradientUnits="userSpaceOnUse" xlink:href="#a"/>
<linearGradient id="e" x1="64.491" x2="84.335" y1="47.333" y2="47.333" gradientTransform="matrix(5.5746 -5.5746 5.5746 5.5746 -197.53 162.41)" gradientUnits="userSpaceOnUse" xlink:href="#a"/>
<linearGradient id="f" x1="31.544" x2="64.952" y1="48.361" y2="48.361" gradientTransform="matrix(6.2751 -6.2751 6.2494 6.2494 -204.47 162.51)" gradientUnits="userSpaceOnUse" xlink:href="#a"/>
<linearGradient id="m" x1="42.637" x2="79.83" y1="27.012" y2="27.012" gradientTransform="matrix(5.5746 -5.5746 5.5746 5.5746 -197.53 162.41)" gradientUnits="userSpaceOnUse" xlink:href="#a"/>
<linearGradient id="g" x1="9.8877" x2="44.071" y1="61.118" y2="61.118" gradientTransform="matrix(5.5746 -5.5746 5.5746 5.5746 -197.53 162.41)" gradientUnits="userSpaceOnUse" xlink:href="#a"/>
<linearGradient id="c" x1="1.9809" x2="22.53" y1="40.337" y2="40.337" gradientTransform="matrix(5.5746 -5.5746 5.5746 5.5746 -197.53 162.41)" gradientUnits="userSpaceOnUse" xlink:href="#a"/>
<linearGradient id="b" x1="22.32" x2="58.438" y1="12.282" y2="12.282" gradientTransform="matrix(5.5746 -5.5746 5.5746 5.5746 -197.53 162.41)" gradientUnits="userSpaceOnUse" xlink:href="#a"/>
<linearGradient id="l" x1="1.2081" x2="31.03" y1="16.121" y2="16.121" gradientTransform="matrix(5.5746 -5.5746 5.5746 5.5746 -197.53 162.41)" gradientUnits="userSpaceOnUse" xlink:href="#a"/>
<linearGradient id="d" x1="13.417" x2="46.825" y1="30.234" y2="30.234" gradientTransform="matrix(6.2751 -6.2751 6.2494 6.2494 -236.68 162.51)" gradientUnits="userSpaceOnUse">
<stop stop-color="#f60" offset="0"/>
<stop stop-color="#fc0" offset="1"/>
</linearGradient>
<linearGradient id="k" x1="-15.13" x2="557.11" y1="211.1" y2="211.1" gradientTransform="matrix(.2448 0 0 .28203 3.593 -2.4937)" gradientUnits="userSpaceOnUse">
<stop stop-color="#e6e6e6" stop-opacity=".056047" offset="0"/>
<stop stop-color="#e6e6e6" offset=".26819"/>
<stop stop-color="#e6e6e6" offset=".72767"/>
<stop stop-color="#e6e6e6" stop-opacity=".0044248" offset="1"/>
</linearGradient>
<filter id="p" color-interpolation-filters="sRGB">
<feFlood flood-color="rgb(0,0,0)" flood-opacity=".43137" result="flood"/>
<feComposite in="flood" in2="SourceGraphic" operator="in" result="composite1"/>
<feGaussianBlur in="composite1" result="blur" stdDeviation="2.5"/>
<feOffset dx="3.5" dy="3.5" result="offset"/>
<feComposite in="SourceGraphic" in2="offset" result="composite2"/>
</filter>
<linearGradient id="h" x1="169.98" x2="169.98" y1="74.393" y2="166.74" gradientTransform="matrix(1.6442 0 0 1.6442 -12.608 -57.352)" gradientUnits="userSpaceOnUse">
<stop stop-color="#b3b3b3" offset="0"/>
<stop stop-color="#fff" offset=".51648"/>
<stop stop-color="#b3b3b3" offset="1"/>
</linearGradient>
</defs>
<metadata>
<rdf:RDF>
<cc:Work rdf:about="">
<dc:format>image/svg+xml</dc:format>
<dc:type rdf:resource="http://purl.org/dc/dcmitype/StillImage"/>
<dc:title/>
</cc:Work>
</rdf:RDF>
</metadata>
<g transform="translate(0 -225.56)">
<rect x=".00086572" y="225.56" width="142.87" height="71.44" fill="#fff" style="paint-order:stroke markers fill"/>
</g>
<g>
<path transform="matrix(.26769 0 0 .26769 -1.6779 -.056382)" d="m540 80.439c-3.8479 3.3053-7.8234 6.4945-11.926 9.5527 4.4717 2.8613 8.4802 6.2756 11.926 10.115zm-19.416 14.869c-8.0006 5.4765-16.419 10.508-25.205 15.023 0.9688 7.5818 1.5648 15.256 1.5488 23.074-0.016 7.8159-0.63582 15.509-1.6348 23.094 8.7649 4.4797 17.119 9.4278 25.096 14.871 8.5762-4.74 15.4-11.511 19.611-19.498v-37.338c-4.1773-7.888-10.932-14.56-19.416-19.227zm19.416 71.07c-3.486 3.9104-7.5539 7.386-12.09 10.299 4.1616 3.0951 8.1926 6.3225 12.09 9.6719z" fill="url(#o)" stroke-width="13.587"/>
<path transform="matrix(.26458 0 0 .26458 -3.5838 -7.144)" d="m224.68 27.001c0.15297 0.1485 0.30606 0.29704 0.45703 0.44727 0.20786-0.14686 0.41259-0.29737 0.61718-0.44727zm14.426 0c-2.5788 2.3076-5.289 4.4978-8.123 6.5547 7.0208 7.5667 13.519 15.561 19.26 23.986 12.43-8.5479 23.129-18.881 31.607-30.541zm52.963 0c-9.6018 14.589-22.329 27.371-37.318 37.639 5.3982 8.6976 10.106 17.791 14.035 27.209 26.535-16.388 47.814-38.763 61.24-64.848zm47.373 0c-14.236 29.634-37.9 54.893-67.553 72.873 3.5492 9.7607 6.2829 19.821 8.1309 30.17 44.258-23.435 78.478-59.801 95.83-103.04z" fill="url(#m)" stroke-width="13.747"/>
<path transform="matrix(.26458 0 0 .26458 -3.5838 -7.144)" d="m389 27.001c47.421 30.004 78.514 79.131 78.398 134.84-0.11466 55.746-31.509 104.96-79.107 135.17h50.83c38.574-35.179 62.283-82.831 62.387-135.25 0.1076-52.315-23.299-99.767-61.578-134.76zm-6.5508 5.9336-2e-3 0.0059c-3.9736 9.4589-8.7464 18.54-14.193 27.281 34.32 23.426 56.664 60.191 56.578 101.73-0.0854 41.539-22.591 78.347-56.998 101.92 5.3978 8.697 10.106 17.778 14.035 27.195 46.539-28.742 76.967-75.87 77.08-129.2 0.10974-53.333-30.055-100.38-76.5-128.93zm-18.746 34.451c-5.7743 8.447-12.288 16.453-19.338 24.047 23.01 16.661 37.939 42.012 37.881 70.605-0.0588 28.581-15.092 53.982-38.172 70.734 7.0208 7.5666 13.513 15.559 19.254 23.984 32.271-22.193 52.964-56.37 53.041-94.789 0.079-38.423-20.478-72.524-52.666-94.582zm-25.223 30.199c-7.4454 7.4079-15.481 14.344-24.051 20.732 15.21 9.7316 25.301 25.649 25.264 43.795-0.0373 18.147-10.181 34.119-25.432 43.912 8.5427 6.3533 16.551 13.258 23.965 20.635 21.712-15.34 35.527-38.571 35.58-64.604 0.0535-26.043-13.68-49.213-35.326-64.471zm-31.635 26.119c-8.0942 5.5404-16.608 10.625-25.496 15.193 0.98011 7.6705 1.5964 15.436 1.5801 23.346-0.0163 7.9074-0.65321 15.691-1.6641 23.363 8.8676 4.5323 17.329 9.5462 25.398 15.053 14.839-8.2017 24.543-22.389 24.576-38.518 0.0332-16.127-9.593-30.298-24.395-38.437z" fill="url(#f)" stroke-width="13.746"/>
<path transform="matrix(.26458 0 0 .26458 -3.5838 -7.144)" d="m506.96 193.93c-1.8859 10.328-4.6795 20.389-8.2539 30.139 22.153 13.364 40.898 30.855 54.838 51.221v-48.637c-13.73-12.634-29.385-23.665-46.584-32.723zm-11.355 38.227v2e-3c-3.9734 9.459-8.7519 18.544-14.199 27.285 14.971 10.219 27.642 22.983 37.176 37.568h34.963v-5.7148c-13.364-23.693-33.344-44.023-57.939-59.141zm-18.746 34.449c-5.7749 8.448-12.297 16.456-19.348 24.051 2.756 1.9955 5.3936 4.12 7.9062 6.3555h42.922c-8.4246-11.627-19.085-21.911-31.48-30.406zm-25.219 30.203c-0.0686 0.0683-0.13742 0.13564-0.20703 0.20312h0.48828c-0.0932-0.0682-0.18657-0.13639-0.28125-0.20312z" fill="url(#n)" stroke-width="13.747"/>
<path transform="matrix(.26458 0 0 .26458 -3.5838 -7.144)" d="m279.9 194.4-6e-3 2e-3c2e-3 9.6e-4 4e-3 9.5e-4 6e-3 2e-3 2.3e-4 -1e-3 -2.3e-4 -3e-3 0-4e-3zm0 4e-3c-1.8859 10.327-4.6799 20.386-8.2539 30.135 29.536 17.817 53.055 42.942 67.17 72.469h36.463c-17.177-43.15-51.232-79.353-95.379-102.6zm-11.363 38.223c2e-3 1e-3 4e-3 3e-3 6e-3 4e-3v-2e-3zm6e-3 4e-3c-3.9733 9.4584-8.7502 18.541-14.197 27.281 14.811 10.11 27.384 22.708 36.895 37.096h38.131c-13.309-25.938-34.432-48.151-60.828-64.377zm-18.746 34.443c-5.7749 8.448-12.297 16.458-19.348 24.053 2.5591 1.853 5.0115 3.8201 7.3613 5.8809h43.133c-8.3764-11.432-18.916-21.553-31.145-29.934z" fill="url(#g)" stroke-width="13.747"/>
<path transform="matrix(.26458 0 0 .26458 -3.5838 -7.144)" d="m52.869 194.86c-1.8859 10.328-4.6678 20.375-8.2422 30.125 29.388 17.728 52.825 42.689 66.963 72.023h36.482c-17.235-42.951-51.209-78.979-95.203-102.15zm-11.355 38.227c-3.9734 9.459-8.7499 18.544-14.197 27.285 14.654 10.003 27.114 22.44 36.588 36.637h38.213c-13.323-25.745-34.359-47.79-60.604-63.922zm-18.748 34.449c-2.8933 4.2325-5.9819 8.3452-9.2207 12.357v17.115h40.031c-8.3214-11.243-18.746-21.205-30.811-29.473z" fill="url(#c)" stroke-width="13.747"/>
<path transform="matrix(.26458 0 0 .26458 -3.5838 -7.144)" d="m13.545 27.001v18.096c3.401 4.1886 6.638 8.4875 9.6543 12.914 12.597-8.6629 23.418-19.156 31.949-31.01zm51.781 0c-9.637 14.784-22.469 27.734-37.619 38.111 5.3982 8.6976 10.104 17.789 14.033 27.207 26.694-16.486 48.067-39.032 61.479-65.318zm47.297 0c-14.215 29.836-37.971 55.268-67.777 73.342 3.5492 9.7607 6.2848 19.821 8.1328 30.17 44.419-23.52 78.726-60.062 96.018-103.51z" fill="url(#b)" stroke-width="13.747"/>
<path transform="matrix(.26458 0 0 .26458 -3.5838 -7.144)" d="m465.61 27.001c-2.4159 2.1311-4.9419 4.1629-7.5781 6.0762 7.0208 7.5667 13.521 15.563 19.262 23.988 12.259-8.4306 22.835-18.597 31.25-30.064zm53.158 0c-9.5555 14.393-22.15 27.015-36.975 37.17 5.3982 8.6976 10.116 17.781 14.045 27.199 24.336-15.03 44.228-35.107 57.701-58.457v-5.9121zm34.771 21.639c-13.983 20.124-32.642 37.439-54.605 50.758 3.5492 9.7607 6.2868 19.823 8.1348 30.172 17.131-9.0707 32.747-20.089 46.471-32.686z" fill="url(#e)" stroke-width="13.747"/>
<path transform="matrix(.26458 0 0 .26458 -3.5838 -7.144)" d="m13.545 58.888v206.95c21.474-29.986 33.944-65.355 34.021-103.26 0.078555-38.155-12.411-73.678-34.021-103.69z" fill="url(#l)" stroke-width="13.747"/>
</g>
<g>
<path transform="matrix(.26458 0 0 .26458 4.938 -7.144)" d="m129.01 27.001c47.84 29.959 79.263 79.305 79.146 135.3-0.11406 55.457-31.181 104.46-78.365 134.7h50.598c38.273-35.134 61.771-82.596 61.875-134.78 0.10809-52.549-23.507-100.19-62.09-135.23zm-5.8027 6.4004-2e-3 0.0059c-3.9736 9.4589-8.7464 18.538-14.193 27.279 34.32 23.426 56.664 60.195 56.578 101.73-0.0855 41.539-22.591 78.346-56.998 101.91 5.3978 8.697 10.104 17.78 14.033 27.197 46.539-28.742 76.969-75.874 77.082-129.2 0.10975-53.333-30.055-100.38-76.5-128.93zm-18.746 34.449c-5.7745 8.4475-12.287 16.455-19.338 24.049 23.01 16.661 37.939 42.01 37.881 70.604-0.0588 28.581-15.092 53.986-38.172 70.738 7.0207 7.5666 13.511 15.555 19.252 23.98 32.271-22.193 52.964-56.368 53.041-94.787 0.079-38.423-20.476-72.522-52.664-94.58zm-25.223 30.199c-7.4454 7.4079-15.481 14.346-24.051 20.734 15.21 9.7316 25.301 25.649 25.264 43.795-0.03733 18.147-10.181 34.119-25.432 43.912 8.5427 6.3533 16.551 13.258 23.965 20.635 21.712-15.34 35.527-38.571 35.58-64.604 0.0536-26.043-13.68-49.215-35.326-64.473zm-31.635 26.121c-8.0942 5.5404-16.608 10.625-25.496 15.193 0.98011 7.6705 1.5944 15.436 1.5781 23.346-0.01627 7.9074-0.65126 15.693-1.6621 23.365 8.8676 4.5323 17.329 9.5442 25.398 15.051 14.839-8.2017 24.543-22.387 24.576-38.516 0.03317-16.127-9.593-30.3-24.395-38.439z" fill="url(#d)" stroke-width="13.746"/>
</g>
<g>
<rect x="-.11087" y="52.319" width="143.26" height="8.5343" fill="url(#k)"/>
<g transform="matrix(.26769 0 0 .26769 24.239 2.0013)" fill="#4d4d4d" aria-label="mediathek browser for SailfishOS">
<path d="m19.931 212.32h1.223v-8.4132c1.1808-1.3495 2.2562-2.0242 3.2472-2.0242 1.6658 0 2.4249 1.0754 2.4249 3.4159v7.0215h1.223v-8.4132c1.2019-1.3495 2.2351-2.0242 3.2472-2.0242 1.6447 0 2.4249 1.0754 2.4249 3.4159v7.0215h1.223v-7.1902c0-2.8887-1.1175-4.3436-3.3737-4.3436-1.3073 0-2.5303 0.90668-3.7954 2.2772-0.40063-1.3706-1.3073-2.2772-3.0996-2.2772-1.2651 0-2.5303 0.8856-3.5424 2.0031h-0.04217l-0.1476-1.7079h-1.0121z"/>
<path d="m43.3 212.59c1.6236 0 2.6779-0.52714 3.5846-1.0964l-0.46388-0.90669c-0.84343 0.5904-1.7923 0.96994-2.9942 0.96994-2.4249 0-4.0485-1.9188-4.1117-4.6599h7.9704c0.04217-0.27411 0.06326-0.56931 0.06326-0.8856 0-3.2894-1.6236-5.2292-4.3437-5.2292-2.5514 0-4.9341 2.2772-4.9341 5.9251 0 3.69 2.3405 5.8829 5.2293 5.8829zm-3.9852-6.6631c0.23194-2.5725 1.8766-4.0906 3.7111-4.0906 1.961 0 3.205 1.3706 3.205 4.0906z"/>
<path d="m54.056 212.59c1.4549 0 2.699-0.78017 3.6057-1.6868h0.04217l0.1476 1.4127h1.0121v-16.763h-1.223v4.5756l0.08434 2.0242c-1.0965-0.86451-2.0031-1.3706-3.3526-1.3706-2.6568 0-4.9762 2.2983-4.9762 5.9251 0 3.7743 1.8345 5.8829 4.6599 5.8829zm0.21086-1.0754c-2.2773 0-3.5635-1.8977-3.5635-4.8075 0-2.7622 1.6447-4.8497 3.7954-4.8497 1.0543 0 2.0031 0.37954 3.1418 1.3917v6.4944c-1.1175 1.1597-2.1718 1.7712-3.3737 1.7712z"/>
<path d="m63.091 212.32h1.223v-11.239h-1.223zm0.63257-13.874c0.54823 0 1.0332-0.40063 1.0332-0.96995 0-0.63257-0.48497-1.0121-1.0332-1.0121-0.56931 0-1.0332 0.37954-1.0332 1.0121 0 0.56932 0.46389 0.96995 1.0332 0.96995z"/>
<path d="m71.015 212.59c1.4338 0 2.7833-0.78017 3.9219-1.7079h0.04217l0.12652 1.4338h1.0332v-7.127c0-2.4881-0.94886-4.4069-3.6267-4.4069-1.8345 0-3.3948 0.8856-4.2593 1.476l0.54823 0.8856c0.78017-0.5904 2.0664-1.2862 3.5424-1.2862 2.1297 0 2.6146 1.729 2.5725 3.3948-4.9551 0.56931-7.1691 1.7501-7.1691 4.2382 0 2.0875 1.4549 3.0996 3.2683 3.0996zm0.25303-1.0332c-1.2441 0-2.2983-0.5904-2.2983-2.1296 0-1.729 1.5182-2.7622 5.9462-3.2683v3.6478c-1.3284 1.1597-2.4038 1.7501-3.6478 1.7501z"/>
<path d="m82.933 212.59c0.50606 0 1.223-0.18977 1.8766-0.42171l-0.2952-0.94886c-0.40063 0.16869-0.94886 0.31629-1.3706 0.31629-1.4971 0-1.8766-0.92777-1.8766-2.3405v-7.0848h3.2261v-1.0332h-3.2261v-3.2472h-1.0332l-0.1476 3.2472-1.7923 0.10543v0.92777h1.7501v7.0004c0 2.0875 0.67474 3.4791 2.8887 3.4791z"/>
<path d="m87.183 212.32h1.223v-8.4132c1.3073-1.3495 2.2351-2.0242 3.5424-2.0242 1.729 0 2.467 1.0754 2.467 3.4159v7.0215h1.223v-7.1902c0-2.8887-1.0754-4.3436-3.4159-4.3436-1.5393 0-2.699 0.8856-3.8376 2.0242l0.02109-2.446v-4.8075h-1.223z"/>
<path d="m103.92 212.59c1.6236 0 2.6779-0.52714 3.5846-1.0964l-0.46389-0.90669c-0.84342 0.5904-1.7923 0.96994-2.9942 0.96994-2.4248 0-4.0485-1.9188-4.1117-4.6599h7.9704c0.0422-0.27411 0.0633-0.56931 0.0633-0.8856 0-3.2894-1.6236-5.2292-4.3437-5.2292-2.5514 0-4.9341 2.2772-4.9341 5.9251 0 3.69 2.3405 5.8829 5.2293 5.8829zm-3.9852-6.6631c0.23194-2.5725 1.8766-4.0906 3.7111-4.0906 1.961 0 3.205 1.3706 3.205 4.0906z"/>
<path d="m110.95 212.32h1.223v-3.0363l2.4249-2.8677 3.6267 5.904h1.3495l-4.2593-6.7896 3.6689-4.4491h-1.3916l-5.3769 6.6209h-0.0422v-12.145h-1.223z"/>
<path d="m131.15 212.59c2.6357 0 4.9551-2.2351 4.9551-6.0727 0-3.4581-1.5182-5.7353-4.5123-5.7353-1.3495 0-2.6779 0.78017-3.7954 1.729l0.0633-2.1508v-4.8075h-1.223v16.763h0.99102l0.1476-1.1386h0.0422c1.0332 0.86451 2.2772 1.4127 3.3315 1.4127zm-0.10543-1.0754c-0.82234 0-2.0242-0.35845-3.1839-1.3706v-6.4944c1.2651-1.1597 2.4248-1.7923 3.5002-1.7923 2.5092 0 3.437 1.961 3.437 4.6599 0 3.0153-1.5603 4.9973-3.7532 4.9973z"/>
<path d="m139.36 212.32h1.223v-7.5487c0.82235-2.0875 2.0242-2.8255 3.0153-2.8255 0.4428 0 0.65366 0.0422 1.0332 0.18977l0.25303-1.0964c-0.35846-0.18977-0.69583-0.25303-1.1386-0.25303-1.3073 0-2.4249 0.96994-3.1839 2.3827h-0.0422l-0.1476-2.0875h-1.0121z"/>
<path d="m150.85 212.59c2.7201 0 5.0816-2.1507 5.0816-5.8829 0-3.7532-2.3616-5.9251-5.0816-5.9251s-5.0817 2.1718-5.0817 5.9251c0 3.7322 2.3616 5.8829 5.0817 5.8829zm0-1.0543c-2.1929 0-3.7954-1.961-3.7954-4.8286 0-2.8676 1.6025-4.8497 3.7954-4.8497s3.8165 1.9821 3.8165 4.8497c0 2.8677-1.6236 4.8286-3.8165 4.8286z"/>
<path d="m160.94 212.32h1.476l1.8345-6.7263c0.35846-1.0965 0.61149-2.1507 0.86451-3.2683h0.10543c0.31629 1.1176 0.52714 2.1508 0.84343 3.2261l1.8977 6.7685h1.5814l3.1629-11.239h-1.2019l-1.9188 7.0848c-0.27411 1.0754-0.52714 2.0453-0.78017 3.0574h-0.0843c-0.2952-1.0121-0.54823-1.982-0.82234-3.0574l-2.0032-7.0848h-1.3495l-2.0031 7.0848c-0.27412 1.0543-0.52715 2.0453-0.80126 3.0574h-0.10543c-0.21085-1.0121-0.46388-1.982-0.71691-3.0574l-1.961-7.0848h-1.3073z"/>
<path d="m178.12 212.59c2.4881 0 3.8587-1.476 3.8587-3.205 0-2.1718-1.8977-2.7833-3.6267-3.437-1.3073-0.48498-2.6146-0.94886-2.6146-2.1929 0-1.0121 0.75909-1.9399 2.4249-1.9399 1.0964 0 1.9188 0.4428 2.6779 1.0121l0.63257-0.84343c-0.84342-0.67474-2.0453-1.2019-3.2683-1.2019-2.3616 0-3.69 1.3916-3.69 3.0363 0 1.9399 1.8555 2.6357 3.5213 3.2261 1.3073 0.46389 2.7201 1.0754 2.7201 2.4038 0 1.1597-0.86451 2.1297-2.5725 2.1297-1.5392 0-2.5724-0.5904-3.5424-1.4127l-0.65366 0.8856c1.0121 0.84342 2.4881 1.5392 4.1328 1.5392z"/>
<path d="m189.17 212.59c1.6236 0 2.6779-0.52714 3.5846-1.0964l-0.46389-0.90669c-0.84343 0.5904-1.7923 0.96994-2.9942 0.96994-2.4248 0-4.0484-1.9188-4.1117-4.6599h7.9704c0.0422-0.27411 0.0633-0.56931 0.0633-0.8856 0-3.2894-1.6236-5.2292-4.3436-5.2292-2.5514 0-4.9341 2.2772-4.9341 5.9251 0 3.69 2.3405 5.8829 5.2293 5.8829zm-3.9852-6.6631c0.23194-2.5725 1.8766-4.0906 3.7111-4.0906 1.961 0 3.205 1.3706 3.205 4.0906z"/>
<path d="m196.19 212.32h1.223v-7.5487c0.82234-2.0875 2.0242-2.8255 3.0152-2.8255 0.4428 0 0.65366 0.0422 1.0332 0.18977l0.25303-1.0964c-0.35846-0.18977-0.69583-0.25303-1.1386-0.25303-1.3073 0-2.4248 0.96994-3.1839 2.3827h-0.0422l-0.1476-2.0875h-1.0121z"/>
<path d="m213.23 195.66c-0.52714-0.23194-1.1175-0.37954-1.6868-0.37954-1.8977 0-2.8887 1.2019-2.8887 3.437v2.3616l-1.5604 0.10543v0.92777h1.5604v10.205h1.223v-10.205h2.5514v-1.0332h-2.5514v-2.2983c0-1.5814 0.52714-2.467 1.729-2.467 0.42172 0 0.86452 0.10543 1.3284 0.31628z"/>
<path d="m218.67 212.59c2.7201 0 5.0817-2.1507 5.0817-5.8829 0-3.7532-2.3616-5.9251-5.0817-5.9251-2.72 0-5.0816 2.1718-5.0816 5.9251 0 3.7322 2.3616 5.8829 5.0816 5.8829zm0-1.0543c-2.1929 0-3.7954-1.961-3.7954-4.8286 0-2.8676 1.6025-4.8497 3.7954-4.8497 2.1929 0 3.8165 1.9821 3.8165 4.8497 0 2.8677-1.6236 4.8286-3.8165 4.8286z"/>
<path d="m227.04 212.32h1.223v-7.5487c0.82234-2.0875 2.0242-2.8255 3.0152-2.8255 0.4428 0 0.65366 0.0422 1.0332 0.18977l0.25303-1.0964c-0.35846-0.18977-0.69583-0.25303-1.1386-0.25303-1.3073 0-2.4248 0.96994-3.1839 2.3827h-0.0422l-0.1476-2.0875h-1.0121z"/>
<path d="m243.51 212.59c3.0152 0 4.9762-1.8134 4.9762-4.175 0-2.3405-1.476-3.3104-3.2261-4.0906l-2.2983-1.0121c-1.1175-0.48497-2.6146-1.1386-2.6146-2.8887 0-1.5814 1.3073-2.6146 3.2683-2.6146 1.5182 0 2.72 0.61149 3.6267 1.5393l0.71691-0.82234c-0.96994-1.0543-2.4881-1.8555-4.3436-1.8555-2.6146 0-4.5545 1.5814-4.5545 3.8587 0 2.2562 1.7501 3.2261 3.1207 3.8376l2.2983 1.0121c1.5182 0.67474 2.7201 1.2651 2.7201 3.1207 0 1.7501-1.4128 2.952-3.69 2.952-1.7501 0-3.3315-0.78018-4.4491-2.0453l-0.78018 0.8856c1.223 1.3706 2.9942 2.2983 5.2293 2.2983z"/>
<path d="m254.03 212.59c1.4338 0 2.7833-0.78017 3.9219-1.7079h0.0422l0.12651 1.4338h1.0332v-7.127c0-2.4881-0.94885-4.4069-3.6267-4.4069-1.8345 0-3.3948 0.8856-4.2593 1.476l0.54823 0.8856c0.78017-0.5904 2.0664-1.2862 3.5424-1.2862 2.1296 0 2.6146 1.729 2.5724 3.3948-4.9551 0.56931-7.1691 1.7501-7.1691 4.2382 0 2.0875 1.4549 3.0996 3.2683 3.0996zm0.25302-1.0332c-1.244 0-2.2983-0.5904-2.2983-2.1296 0-1.729 1.5182-2.7622 5.9462-3.2683v3.6478c-1.3284 1.1597-2.4038 1.7501-3.6478 1.7501z"/>
<path d="m263.08 212.32h1.223v-11.239h-1.223zm0.63257-13.874c0.54823 0 1.0332-0.40063 1.0332-0.96995 0-0.63257-0.48497-1.0121-1.0332-1.0121-0.56932 0-1.0332 0.37954-1.0332 1.0121 0 0.56932 0.46388 0.96995 1.0332 0.96995z"/>
<path d="m270.01 212.59c0.40063 0 0.61149-0.0633 0.82234-0.12651l-0.18977-0.96994c-0.23194 0.0422-0.31628 0.0422-0.40063 0.0422-0.2952 0-0.50605-0.23194-0.50605-0.75909v-15.224h-1.223v15.097c0 1.3073 0.48498 1.9399 1.4971 1.9399z"/>
<path d="m274.34 201.08-1.5603 0.10543v0.92777h1.5603v10.205h1.223v-10.205h2.5514v-1.0332h-2.5514v-2.2983c0-1.5814 0.52714-2.467 1.729-2.467 0.42171 0 0.86451 0.10543 1.3284 0.31628l0.2952-0.96994c-0.52714-0.23194-1.1175-0.37954-1.6869-0.37954-1.8977 0-2.8887 1.2019-2.8887 3.437zm6.5155 11.239h1.223v-11.239h-1.223zm0.63257-15.856c-0.56931 0-1.0332 0.37954-1.0332 1.0121 0 0.56932 0.46389 0.96995 1.0332 0.96995 0.54823 0 1.0332-0.40063 1.0332-0.96995 0-0.63257-0.48497-1.0121-1.0332-1.0121z"/>
<path d="m289.02 212.59c2.4881 0 3.8587-1.476 3.8587-3.205 0-2.1718-1.8977-2.7833-3.6267-3.437-1.3073-0.48498-2.6146-0.94886-2.6146-2.1929 0-1.0121 0.75908-1.9399 2.4248-1.9399 1.0965 0 1.9188 0.4428 2.6779 1.0121l0.63257-0.84343c-0.84343-0.67474-2.0453-1.2019-3.2683-1.2019-2.3616 0-3.69 1.3916-3.69 3.0363 0 1.9399 1.8556 2.6357 3.5213 3.2261 1.3073 0.46389 2.72 1.0754 2.72 2.4038 0 1.1597-0.86451 2.1297-2.5724 2.1297-1.5393 0-2.5725-0.5904-3.5424-1.4127l-0.65366 0.8856c1.0121 0.84342 2.4881 1.5392 4.1328 1.5392z"/>
<path d="m295.77 212.32h1.223v-8.4132c1.3073-1.3495 2.2351-2.0242 3.5424-2.0242 1.729 0 2.467 1.0754 2.467 3.4159v7.0215h1.223v-7.1902c0-2.8887-1.0754-4.3436-3.4159-4.3436-1.5393 0-2.699 0.8856-3.8376 2.0242l0.0211-2.446v-4.8075h-1.223z"/>
<path d="m313.74 212.59c3.7532 0 6.389-3.1207 6.389-8.0126 0-4.8708-2.6357-7.9071-6.389-7.9071-3.7111 0-6.3679 3.0363-6.3679 7.9071 0 4.8919 2.6568 8.0126 6.3679 8.0126zm0-1.1386c-3.0363 0-5.0395-2.699-5.0395-6.8739 0-4.175 2.0031-6.7685 5.0395-6.7685 3.0574 0 5.0816 2.5936 5.0816 6.7685 0 4.175-2.0242 6.8739-5.0816 6.8739z"/>
<path d="m327.73 212.59c3.0152 0 4.9762-1.8134 4.9762-4.175 0-2.3405-1.476-3.3104-3.2261-4.0906l-2.2983-1.0121c-1.1175-0.48497-2.6146-1.1386-2.6146-2.8887 0-1.5814 1.3073-2.6146 3.2683-2.6146 1.5182 0 2.72 0.61149 3.6267 1.5393l0.71691-0.82234c-0.96994-1.0543-2.4881-1.8555-4.3436-1.8555-2.6146 0-4.5545 1.5814-4.5545 3.8587 0 2.2562 1.7501 3.2261 3.1207 3.8376l2.2983 1.0121c1.5182 0.67474 2.7201 1.2651 2.7201 3.1207 0 1.7501-1.4128 2.952-3.69 2.952-1.7501 0-3.3315-0.78018-4.4491-2.0453l-0.78017 0.8856c1.223 1.3706 2.9942 2.2983 5.2293 2.2983z"/>
</g>
</g>
<g>
<g transform="matrix(.43504 0 0 .43504 -3.3358 -15.174)" filter="url(#p)" stroke="#000" stroke-opacity=".98525" stroke-width="7.2982" style="paint-order:stroke markers fill" aria-label="fishtheke">
<path d="m65.755 77.502c-3.7524 0-8.3511 0.69554-12.467 3.6586-4.1154 2.963-7.4371 8.0665-9.1156 15.763l-0.0036 0.01188-2.6204 12.393-5.5295 26.139c-2.7095 0.88432-5.4942 1.8809-8.0097 3.5766-3.1479 2.1221-5.8133 5.8161-5.8133 10.454 0 3.5576 1.4434 6.8536 3.9092 9.0312 2.4658 2.1776 5.7729 3.2322 9.2938 3.2322 3.0202 0 6.7188-0.76067 9.9887-3.2868 3.2691-2.5256 5.8829-6.7137 7.1247-12.709l8.1879-38.697h1.7438l-3.6515 17.257-0.0071 0.0333c-0.39032 2.0296-0.7044 3.8777-0.7044 5.729 0 3.9207 1.1783 7.3152 3.4662 9.6109 2.2879 2.2957 5.422 3.2547 8.4575 3.2547 2.845 0 7.2415-0.83532 11.338-4.0696 2.5687 2.3974 6.1861 4.0696 10.685 4.0696 4.4446 0 9.8974-1.2703 14.045-5.185 0.13606-0.0784 0.28996-0.1911 0.42763-0.27202l-1.0679 5.0056h18.563l5.7967-27.397c0.43182-1.4379 1.0028-2.6041 1.5276-3.3771-0.13395 1.793-0.75318 4.8401-1.5311 8.113-0.86636 3.6448-1.8293 7.3546-1.8293 10.774 0 2.8344 0.73358 5.9275 2.896 8.3981 2.1624 2.4706 5.6619 3.9401 9.8176 3.9401 2.7097 0 6.4869-0.91323 9.9732-3.8415 0.45455 0.53897 0.95616 1.0266 1.5026 1.4539 2.1667 1.6943 4.8348 2.3876 7.4538 2.3876 1.5546 0 3.6022-0.30321 5.7825-1.0429l-0.12591 0.59155h18.563l5.7967-27.397c0.43181-1.4379 1.0028-2.6041 1.5276-3.3771-0.13396 1.793-0.75318 4.8401-1.5311 8.113-0.86637 3.6448-1.8293 7.3546-1.8293 10.774 0 2.8344 0.73358 5.9275 2.896 8.3981 2.1624 2.4706 5.6619 3.9401 9.8176 3.9401 2.88 0 6.957-0.9967 10.615-4.3808 0.80936 0.85835 1.6914 1.6351 2.6929 2.2248 2.6556 1.564 5.7456 2.156 9.0075 2.156 4.507 0 8.4642-1.2296 11.875-3.1621l-0.5773 2.7107h18.564l4.3428-20.536c0.59137-0.42118 1.1429-0.82543 1.5098-1.0073-0.0158 0.55997-0.0565 1.199-0.17818 1.726l-7e-3 0.0309-0.64857 3.0528-2e-3 0.0131c-0.34409 1.6774-0.52621 3.2774-0.52621 4.7574 0 3.5207 1.1527 6.8973 3.6384 9.175 2.4857 2.2776 5.917 3.2393 9.7154 3.2393 2.5176 0 6.6117-0.87968 10.365-4.3012 0.81889 0.8521 1.7102 1.62 2.7154 2.2023 2.6197 1.5174 5.6481 2.0989 8.8198 2.0989 3.613 0 7.3929-0.73447 10.566-3.0872 3.173-2.3528 5.4121-6.2145 6.3396-11.305l1.9041-10.447-7.923 7.0701c-1.8921 1.6883-5.2144 3.1728-6.6734 3.1728-0.66738 0-0.59059-0.0424-0.645-0.10453-0.0434-0.0496-0.28227-0.66882-0.39437-1.8222 9.5198-1.9316 17.815-9.2988 17.815-19.4 0-2.4309-0.52593-5.3255-2.6418-7.607-2.1158-2.2815-5.4409-3.4151-9.5076-3.4151-9.327 0-15.872 5.7694-19.507 12.244-3.4512 6.1476-4.7623 12.918-4.8904 17.978-0.39585 0.71228-0.79193 1.369-1.0346 1.6024 0.0336-0.14882 0.0157-0.20778 0.0653-0.39793l0.0143-0.0582 0.88139-3.9021 1e-3 -6e-3c0.29623-1.333 0.38729-2.5909 0.38723-3.7251 0-3.1323-0.85406-6.2719-2.9435-8.7272-0.6692-0.78635-1.5022-1.4298-2.3995-2.0015l17.737-12.33h-20.542l-7.9325 6.2457 4.7383-22.329-19.077 2.58-4.0232 18.874c-0.39851-0.91946-0.8962-1.8197-1.6499-2.6323-2.1161-2.2813-5.4409-3.4151-9.5076-3.4151-9.2779 0-15.807 5.7094-19.448 12.14-3.4063 6.0174-4.737 12.642-4.9248 17.685-0.48081 0.93873-0.96512 1.7651-1.2532 2.0407-0.0631 0.0604-0.10652 0.02-0.14967 0.0606 0.14795-1.4341 0.79736-4.3472 1.6369-7.6415 0.94042-3.6902 1.9754-7.7222 1.9754-11.57 0-3.8039-1.2433-7.1652-3.623-9.3472-2.3797-2.182-5.5165-2.991-8.6024-2.991-1.0408 0-2.3306 0.21369-3.6895 0.56898l3.4875-16.353-19.082 2.5812-2.8794 13.504h-2.213l2.7772-12.851-19.082 2.5812-2.251 10.27h-2.5527l-2.1548 10.383h2.5301l-3.0647 14.33h0.28746l-0.9194 2.2878c-0.76761 1.9101-1.4982 3.3158-2.0158 3.9354-0.21706 0.25987-0.30879 0.3601-0.41218 0.44069 0.12411-1.3862 0.79871-4.4016 1.657-7.7697 0.94042-3.6902 1.9754-7.7222 1.9754-11.57 0-3.8039-1.2433-7.1652-3.623-9.3472-2.3797-2.182-5.5165-2.991-8.6024-2.991-1.0408 0-2.3306 0.21369-3.6895 0.56898l3.4875-16.353-5.1398 0.69608-13.942 1.8851-7.4538 34.966c-0.32312-3.8796-0.75033-9.3967-1.2235-20.341l-0.17224-3.9817-17.653 2.3318-0.69846 2.2153c-2.3025 7.3034-4.8946 14.307-8.8388 21.481-2.3348 1.5866-4.0802 4.2125-4.6243 7.5536-0.30314 0.2696-0.57407 0.50179-0.81605 0.60581 0.02577-0.13593 0.01564-0.30388 0.05582-0.43594l0.04633-0.15205 6.4928-30.739h-2.2795c1.4428-1.7156 2.2937-4.0664 2.2937-6.6579 0-4.9586-3.112-8.7959-6.6532-10.504-3.5412-1.7083-7.4275-2.0217-10.801-2.0217zm-6.7185 8.726c-1.6083 2.1804-2.4806 4.6675-2.9554 7.082-7.1e-5 3.63e-4 7.2e-5 8.24e-4 0 0.0012l-2.2237 10.673h0.03682l-8.5252 40.291-0.0012 7e-3c-0.97778 4.7232-2.7084 7.0783-4.4414 8.4171-1.7246 1.3323-3.6753 1.7563-5.4998 1.7604 1.1766-0.45403 2.2441-1.2101 3.0789-2.2011 1.3257-1.5738 2.223-3.6448 2.7629-6.2766l1.6309-7.7662 5.7896-27.378 2.618-12.374 0.0012-0.0071c1.4067-6.4299 3.7807-9.5986 6.2445-11.373 0.47703-0.34346 0.97955-0.60236 1.4836-0.85644zm16.688 2.1655c0.11669 0.43999 0.18649 0.9564 0.18649 1.6345 0 0.38486-0.0639 0.51929-0.09978 0.76735zm180.82 0.83031-6.0592 28.55-0.0499 0.0416-3.6764 17.389h-3.6301l0.93959-4.4069-2.1952-1.0536c0.34746-0.34667 0.68649-0.69346 1.0204-1.0465h1.6226l8.309-38.97zm-128.68 0.0012-5.0911 23.873c-8.3e-4 3e-3 -2e-3 6e-3 -2e-3 8e-3l-0.0404 0.13779-4.6469 21.96h-3.6289l1.3874-6.507 0.28152-1.3197 1.8376-8.6179 6.1899-29.032zm59.826 0-5.0911 23.873c-8.3e-4 3e-3 -2e-3 6e-3 -2e-3 8e-3l-0.0404 0.13779-4.6469 21.96h-3.6289l1.3874-6.507 8.309-38.97zm-122.23 0.72933c-0.17447 0.70052-0.27083 1.4126-0.27083 2.1429 0 1.6721 0.56186 3.2916 1.4409 4.5887h-3.7988l0.40506-1.9469 0.0036-0.019c0.35419-1.8017 1.0386-3.4475 1.8115-4.3998 0.13739-0.16928 0.277-0.23102 0.40862-0.36586zm100.8 2.5064-2.4897 11.523h0.0677l-4.6433 21.77 0.038-0.16036c-0.3195 1.2246-0.41931 2.3841-0.41931 3.4044 0 1.6266 0.47517 3.6482 2.0075 4.9842 0.66801 0.58245 1.3786 0.91943 2.0894 1.1451-1.2485 0.39441-2.3998 0.52859-3.307 0.52859-1.3696 0-2.3095-0.33174-2.9578-0.83863-0.64822-0.50688-1.1939-1.2482-1.4789-2.8924l-0.55948-3.2274h0.31122l6.1887-28.927h-0.0523l1.4919-6.8076zm-63.911 9.6359c0.7653 15.139 1.4528 19.611 1.4528 23.892 0 1.0099-0.064 1.5575-0.18294 2.0134l-0.8398 3.2215c-0.14654 0.086-0.30648 0.20444-0.45139 0.28746l-0.46801 0.26846-0.37061 0.39199c-1.4979 1.585-3.7654 2.5512-6.0557 3.0552 0.40721-0.2591 0.81779-0.51091 1.1962-0.84812 2.1-1.8715 3.2987-4.8771 3.2987-8.315 0-4.3544-0.61769-6.7471-1.4765-18.509l-2.9601-0.33616c0.52554-1.4743 1.0824-2.9527 1.562-4.4224zm35.016 1.587c1.8417 0 2.9939 0.45108 3.6705 1.0714 0.67656 0.62037 1.2568 1.6036 1.2568 3.9686 0 2.3966-0.82698 6.1516-1.7485 9.7677s-1.9754 6.92-1.9754 10.13c0 1.4118 0.22434 3.1445 1.5003 4.6742 0.89907 1.0779 2.2133 1.6034 3.5576 1.897-1.0121 0.36048-1.9856 0.46326-2.9518 0.46326-2.615 0-3.6478-0.67431-4.325-1.448-0.67716-0.77369-1.0904-2.0255-1.0904-3.5921 0-1.8093 0.76718-5.4533 1.6309-9.0871 0.86375-3.6338 1.8293-7.2302 1.8293-10.548 0-1.7508-0.24548-3.4786-1.3696-5.0686-0.58119-0.82208-1.4393-1.4602-2.3769-1.8946 0.85002-0.26169 1.6409-0.33378 2.3923-0.33378zm59.826 0c1.8417 0 2.9939 0.45108 3.6705 1.0714 0.67656 0.62037 1.2568 1.6036 1.2568 3.9686 0 2.3966-0.82698 6.1516-1.7485 9.7677-0.92155 3.6162-1.9754 6.92-1.9754 10.13 0 1.4118 0.22434 3.1445 1.5003 4.6742 0.89799 1.0766 2.2103 1.6017 3.5529 1.8958-1.011 0.35796-1.9844 0.46445-2.9471 0.46445-2.615 0-3.6478-0.67431-4.325-1.448-0.67716-0.77369-1.0904-2.0255-1.0904-3.5921 0-1.8093 0.76717-5.4533 1.6309-9.0871s1.8293-7.2302 1.8293-10.548c0-1.7508-0.24548-3.4786-1.3696-5.0686-0.5812-0.82208-1.4393-1.4602-2.3769-1.8946 0.85001-0.26169 1.6409-0.33378 2.3923-0.33378zm-126.63 0.30052h3.6372l-4.5994 21.777 0.07958-0.30765c-0.39565 1.3-0.49652 2.5229-0.49652 3.5445 0 1.6482 0.51301 3.6887 2.0514 5.0056 0.664 0.56841 1.3672 0.89721 2.0692 1.1201-1.2404 0.38594-2.3904 0.53216-3.2927 0.53216-1.5912 0-2.5952-0.41432-3.288-1.1095-0.69276-0.69513-1.3375-1.9089-1.3375-4.458 0-0.93221 0.21174-2.4688 0.57373-4.3511zm223.97 0.97998c-0.47691 0.70145-0.92839 1.4321-1.3482 2.2106-1.8732 3.4736-3.2941 7.6635-4.1694 11.633l-1.0168 4.6124 0.38842-0.0143c-0.0847 0.72661-0.17223 1.4439-0.17223 2.207 0 2.9839 0.62468 5.5459 2.2914 7.449 1.1413 1.3031 2.6566 2.0062 4.142 2.3401-0.71716 0.10644-1.3919 0.2542-2.2201 0.2542-2.2645 0-3.9822-0.43181-5.1624-1.1154-1.1802-0.68358-1.9611-1.5599-2.5361-3.212l-0.89445-2.5705 0.29814-0.62006-0.01-0.85287c-3e-3 -0.27515-8e-3 -0.33397-8e-3 -0.2055 0-3.7531 1.1928-10.237 4.009-15.253 1.6607-2.9582 3.7016-5.3647 6.4085-6.8622zm-69.783 0.0606c-0.43931 0.64578-0.86562 1.3064-1.2556 2.0205-1.8907 3.4625-3.3042 7.6901-4.1052 11.86l-0.17818 0.92534-0.27558 0.0178-0.13779 2.1393-0.29815 1.5502 0.20074-0.0131c-0.0699 0.91178-0.16629 1.8083-0.1663 2.8402 0 3.0516 0.50315 5.7407 2.4244 7.7305 0.69106 0.71572 1.4863 1.1728 2.308 1.5323-0.15133 4e-3 -0.29087 0.0285-0.44425 0.0285-2.3613 0-4.1183-0.44814-5.3038-1.1463-1.1854-0.69814-1.9585-1.5876-2.5194-3.3046l-0.89563-2.7428c5.1e-4 -1e-3 6.7e-4 -2e-3 1e-3 -4e-3l0.33023-0.71627 5e-3 -0.78874c0.0221-3.7949 1.2349-10.235 4.0506-15.209 1.6326-2.884 3.6312-5.2322 6.26-6.7197zm-54.1 2.0443h2.1714l-3.0552 14.33h0.0558l-0.77211 2.6156c-0.66184 2.2417-1.9394 3.503-2.8128 3.9686 0.0275-0.17783 0.018-0.36936 0.0642-0.54641l0.0202-0.0796zm91.366 4.4331 1.4195 3.0848c0.60294-0.15729 1.089-0.22094 1.6369-0.22094 2.011 0 2.9076 0.5548 3.6111 1.3815 0.7035 0.82668 1.2033 2.2019 1.2033 3.9971 3e-5 0.74574-0.059 1.4431-0.21381 2.1405-1.7e-4 7.6e-4 1.7e-4 2e-3 0 2e-3l-0.86357 3.8249 0.0285-0.1176c-0.25665 0.98381-0.49296 2.1172-0.49296 3.4032 0 1.2455 0.2239 2.9285 1.4908 4.3939 0.88278 1.0211 2.152 1.522 3.4638 1.8067-1.0274 0.37632-1.9672 0.45732-2.7724 0.45732-2.5961 0-4.0166-0.61831-4.7847-1.3221-0.76804-0.70376-1.271-1.71-1.271-3.794 0-0.85064 0.11856-2.0316 0.37537-3.2856 4.6e-4 -2e-3 7.1e-4 -4e-3 1e-3 -6e-3l0.63432-2.9839-0.0143 0.063c0.31048-1.3453 0.39437-2.5945 0.39437-3.642 0-1.5134-0.15527-3.1395-1.2389-4.7478-1.0378-1.5403-3.1064-2.5126-4.9462-2.5943zm-22.861 7.3849-0.53572 2.5123h1.1273l-1.0857 1.2009c-3.8119 4.2151-6.1995 6.5855-10.912 6.5855-1.4334 0-1.6004-0.22219-1.5406-0.16036 0.0586 0.0607-0.35424-0.50227-0.36942-2.5824 5.1978-1.0369 9.9858-3.7044 13.316-7.5559zm-128.32 2.5123h0.4597l-0.43594 0.39199c-8e-3 -0.12043-0.0151-0.26928-0.0238-0.39199z" color="#000000" color-rendering="auto" dominant-baseline="auto" image-rendering="auto" shape-rendering="auto" solid-color="#000000" stroke="none" style="font-feature-settings:normal;font-variant-alternates:normal;font-variant-caps:normal;font-variant-ligatures:normal;font-variant-numeric:normal;font-variant-position:normal;isolation:auto;mix-blend-mode:normal;paint-order:stroke markers fill;shape-padding:0;text-decoration-color:#000000;text-decoration-line:none;text-decoration-style:solid;text-indent:0;text-orientation:mixed;text-transform:none;white-space:normal"/>
</g>
</g>
<g>
<path transform="scale(.26458)" d="m95.51 76.08c-10.885 0-24.553 3.9577-29.625 27.213l-4.3058 20.358-9.7957 46.315c-10.762 3.4017-21.895 7.1738-21.895 18.492 0 8.7207 6.4935 14.164 15.709 14.164 7.9785 0 18.617-3.8965 22.266-21.523l14.473-68.404h10.143l0.99023-5.0723h-10.143l2.1641-10.391c1.4225-7.2363 5.3197-14.287 13.422-14.287 4.082 0 6.8646 1.6087 6.9883 5.0723-0.1237-0.1237-0.61784-0.125-1.0508-0.125-2.6595 0-4.2676 3.2786-4.2676 6.1855 0 5.4427 3.8965 6.8027 7.6074 6.8027 5.1953 0 10.02-2.6595 10.02-10.205 0-12.184-12.556-14.596-22.699-14.596zm109.76 6.1855-18.74 2.5352-13.529 63.457h-0.33985c-2.4121 2.1647-5.4427 4.2064-9.0918 6.3711 0.37109-1.4225 0.49414-2.9069 0.49414-4.8242 0-8.4733-1.3607-13.174-2.7832-46.078l-18.74 2.4746c-3.9583 12.555-8.4733 24.862-15.586 37.541-3.3307 1.5745-6.5915 5.6443-6.7266 11.387-2.1913 2.6774-4.978 4.3242-7.8984 4.3242-3.5254 0-5.1953-1.1758-5.1953-4.7012 0-1.2988 0.1237-2.6595 0.55664-4.082l9.0918-43.047h-18.244l-8.5977 40.635c-0.61849 3.2161-1.0508 5.9987-1.0508 8.2871 0 10.638 5.998 15.154 13.605 15.154 4.7296 0 12.527-1.4052 19.203-9.5527 2.4351 5.2585 7.9444 9.5527 17.008 9.5527 6.4941 0 14.597-1.9792 19.916-7.6074 4.0336-2.311 8.4959-5.3068 12.998-9.3574l-3.459 16.223h18.244l8.5977-40.635c1.9173-6.4942 5.3197-11.689 9.8965-11.689 3.0306 0 4.5762 2.1647 4.5762 6.4941 0 8.1022-5.6895 23.688-5.6895 32.285 0 7.2363 3.7715 14.287 14.904 14.287 5.0729 0 11.864-1.5093 17.918-11.109 1.3419 7.7414 6.6488 11.109 13.207 11.109 4.5383 0 11.902-1.2932 18.389-8.5957l-1.6738 7.8535h18.244l8.5977-40.635c1.9173-6.4942 5.3197-11.689 9.8965-11.689 3.0306 0 4.5762 2.1647 4.5762 6.4941 0 8.1022-5.6895 23.688-5.6895 32.285 0 7.2363 3.7715 14.287 14.904 14.287 5.1319 0 12.018-1.5523 18.125-11.455 2.6242 8.0322 9.3205 11.455 18.566 11.455 12.745 0 22.167-6.7793 29.08-15.238l-3.0898 14.496h18.246l6.6172-31.297c3.5254-2.9069 6.433-4.6992 9.3398-4.6992 3.4017 0 4.5762 2.4121 4.5762 6.123 0 1.3607-0.123 3.0306-0.49414 4.6387l-1.0508 4.9473c-0.49481 2.4121-0.74219 4.6999-0.74219 6.6172 0 9.2155 5.4427 14.412 15.957 14.412 4.3163 0 11.408-1.2543 17.686-11.143 2.718 7.8092 9.3858 11.143 18.324 11.143 10.267 0 19.235-4.1439 21.895-18.74-4.0202 3.5872-10.019 6.7402-14.967 6.7402-4.3913 0-7.8555-2.4115-7.8555-10.514 0-1.1752 0.12301-2.4114 0.30859-3.834 15.153-0.98957 29.131-11.999 29.131-26.719 0-6.3086-2.6582-12.123-13.977-12.123-25.977 0-34.203 30.492-34.203 45.088 0 0.13924 0.0122 0.26471 0.0137 0.40234-2.1776 4.523-4.6626 7.4531-8.9961 7.4531-3.9583 0-4.9473-2.1654-4.9473-4.7012 0-1.4225 0.2461-2.6595 0.61719-4.082l1.4238-6.3086c0.37109-1.6699 0.49421-3.278 0.49414-4.8242 0-8.1022-4.4531-14.844-13.916-14.844-1.4225 0-2.7826 0.18555-4.2051 0.55664l25.357-17.627h-12.555l-24.432 19.234 9.4629-44.592-18.74 2.5352-13.529 63.457h-0.33789c-6.4323 7.1126-12.371 12.803-22.391 12.803-6.0612 0-9.1524-2.0417-9.1524-10.639 0-1.4844 0.1849-3.153 0.3086-5.0703 15.153-0.98957 29.131-11.999 29.131-26.719 0-6.3086-2.6602-12.123-13.979-12.123-25.842 0-34.108 30.162-34.193 44.846-2.2524 4.8909-4.7643 8.0977-9.3008 8.0976-3.8965 0-5.0703-2.166-5.0703-5.3203 0-7.1126 6.123-22.45 6.123-32.717 0-10.143-5.9994-14.287-14.102-14.287-3.8965 0-9.3405 0.98958-14.783 7.0508l6.8047-31.914-18.74 2.5352-13.529 63.457h-0.2793c-1.9173 6.4941-6.4935 11.195-11.441 11.195-3.5254 0-5.1328-1.1758-5.1328-4.7012 0-1.2988 0.123-2.6595 0.49414-4.082l8.1016-37.975h7.6074l0.99023-5.0723h-7.6074l4.3301-20.039-18.74 2.5352-3.8359 17.504h-4.1426l-1.0527 5.0723h4.207l-7.6074 35.562h-0.32422c-2.6595 6.6178-5.196 11.195-10.639 11.195-3.8965 0-5.0703-2.166-5.0703-5.3203 0-7.1126 6.123-22.45 6.123-32.717 0-10.143-5.9994-14.287-14.102-14.287-3.8965 0-9.3405 0.98958-14.783 7.0508zm163.94 30.924c2.4121 0 3.1543 2.041 3.1543 5.1953 0 10.514-8.7207 20.286-18.369 20.904 2.4121-12.555 8.8444-26.1 15.215-26.1zm114.57 0c2.4121 0 3.1543 2.041 3.1543 5.1953 0 10.514-8.7201 20.533-18.492 20.904 2.6595-12.061 8.9674-26.1 15.338-26.1zm-340.5 6.7422c1.4225 19.482 2.4121 23.44 2.4121 29.996 0 8.8444-5.4414 11.752-11.008 11.752-5.3313 0-7.5375-2.6753-7.7148-8.1172 0.0585-0.12661 0.11388-0.26228 0.17187-0.39062 0.68713 1.1151 1.972 1.332 3.2129 1.332 3.4635 0 5.5664-3.1537 5.5664-6.2461 0-2.1029-1.2363-3.5247-2.9062-4.3906 4.2057-8.1022 7.7298-15.71 10.266-23.936zm-92.369 54.18-1.5449 7.3594c-1.4844 7.2363-4.763 9.8965-7.2988 9.8965-1.4225 0-5.1953-0.80469-5.1953-5.0723 0-5.4427 5.9368-9.6478 14.039-12.184z" fill="url(#h)" style="paint-order:stroke markers fill"/>
</g>
</svg>

