<?xml version="1.0" encoding="UTF-8" standalone="no"?>
<!-- Created with Inkscape (http://www.inkscape.org/) -->

<svg
   xmlns:osb="http://www.openswatchbook.org/uri/2009/osb"
   xmlns:dc="http://purl.org/dc/elements/1.1/"
   xmlns:cc="http://creativecommons.org/ns#"
   xmlns:rdf="http://www.w3.org/1999/02/22-rdf-syntax-ns#"
   xmlns:svg="http://www.w3.org/2000/svg"
   xmlns="http://www.w3.org/2000/svg"
   xmlns:xlink="http://www.w3.org/1999/xlink"
   xmlns:sodipodi="http://sodipodi.sourceforge.net/DTD/sodipodi-0.dtd"
   xmlns:inkscape="http://www.inkscape.org/namespaces/inkscape"
   width="540"
   height="270"
   id="svg2"
   version="1.1"
   inkscape:version="0.92.2 2405546, 2018-03-11"
   sodipodi:docname="fishtheke_store.svg"
   inkscape:export-filename="/home/mo/Dokumente/Icon für HipsterFish/berail_store.png"
   inkscape:export-xdpi="90"
   inkscape:export-ydpi="90">
  <sodipodi:namedview
     id="base"
     pagecolor="#ffffff"
     bordercolor="#666666"
     borderopacity="1.0"
     inkscape:pageopacity="0.0"
     inkscape:pageshadow="2"
     inkscape:zoom="12.498494"
     inkscape:cx="549.06804"
     inkscape:cy="151.69103"
     inkscape:document-units="px"
     inkscape:current-layer="layer3"
     showgrid="false"
     inkscape:window-width="2880"
     inkscape:window-height="1506"
     inkscape:window-x="0"
     inkscape:window-y="0"
     inkscape:window-maximized="1"
     inkscape:snap-bbox="true"
     inkscape:snap-global="true"
     showguides="true"
     inkscape:guide-bbox="true">
    <inkscape:grid
       snapvisiblegridlinesonly="true"
       enabled="true"
       visible="true"
       empspacing="5"
       id="grid2985"
       type="xygrid" />
    <sodipodi:guide
       position="2.4827973,-306.62547"
       orientation="1,0"
       id="guide5628"
       inkscape:locked="false" />
    <sodipodi:guide
       position="417.92568,271.30592"
       orientation="0,1"
       id="guide5630"
       inkscape:locked="false" />
    <sodipodi:guide
       position="245.68598,4.0119794"
       orientation="0,1"
       id="guide5632"
       inkscape:locked="false" />
    <sodipodi:guide
       position="536.62465,172.26075"
       orientation="1,0"
       id="guide1321"
       inkscape:locked="false" />
  </sodipodi:namedview>
  <defs
     id="defs4">
    <linearGradient
       inkscape:collect="always"
       id="linearGradient1715">
      <stop
         style="stop-color:#55ff55;stop-opacity:0.02949852"
         offset="0"
         id="stop1711" />
      <stop
         id="stop1723"
         offset="0.26818544"
         style="stop-color:#00d400;stop-opacity:0.74631268" />
      <stop
         style="stop-color:#00d400;stop-opacity:0.75073749"
         offset="0.72766829"
         id="stop1725" />
      <stop
         style="stop-color:#55ff55;stop-opacity:0;"
         offset="1"
         id="stop1713" />
    </linearGradient>
    <linearGradient
       gradientUnits="userSpaceOnUse"
       y2="73.414001"
       y1="14.27"
       x2="14.268"
       x1="73.413002"
       id="linearGradient1695">
      <stop
         id="stop1689"
         offset="0"
         stop-color="#fff"
         style="stop-color:#005500;stop-opacity:1" />
      <stop
         style="stop-color:#80ff80;stop-opacity:1"
         id="stop1691"
         offset=".5"
         stop-color="#ffd42a" />
      <stop
         id="stop1693"
         offset="1"
         stop-color="#fff"
         style="stop-color:#00d400;stop-opacity:1" />
    </linearGradient>
    <inkscape:path-effect
       effect="spiro"
       id="path-effect4444"
       is_visible="true" />
    <inkscape:path-effect
       is_visible="true"
       id="path-effect4440"
       effect="spiro" />
    <inkscape:path-effect
       effect="spiro"
       id="path-effect4436"
       is_visible="true" />
    <inkscape:path-effect
       is_visible="true"
       id="path-effect4432"
       effect="spiro" />
    <inkscape:path-effect
       effect="spiro"
       id="path-effect4428"
       is_visible="true" />
    <inkscape:path-effect
       is_visible="true"
       id="path-effect4424"
       effect="spiro" />
    <inkscape:path-effect
       effect="spiro"
       id="path-effect4420"
       is_visible="true" />
    <inkscape:path-effect
       is_visible="true"
       id="path-effect4416"
       effect="spiro" />
    <inkscape:path-effect
       effect="spiro"
       id="path-effect4412"
       is_visible="true" />
    <inkscape:path-effect
       is_visible="true"
       id="path-effect4408"
       effect="spiro" />
    <inkscape:path-effect
       effect="spiro"
       id="path-effect4404"
       is_visible="true" />
    <inkscape:path-effect
       fuse_tolerance="0"
       vertical_pattern="false"
       prop_units="false"
       tang_offset="0"
       normal_offset="0"
       spacing="0"
       scale_y_rel="false"
       prop_scale="1"
       copytype="single_stretched"
       pattern="M 0,0 1,0"
       is_visible="true"
       id="path-effect4398"
       effect="skeletal" />
    <inkscape:path-effect
       effect="spiro"
       id="path-effect4381"
       is_visible="true" />
    <inkscape:path-effect
       is_visible="true"
       id="path-effect4377"
       effect="spiro" />
    <inkscape:path-effect
       effect="spiro"
       id="path-effect4373"
       is_visible="true" />
    <inkscape:path-effect
       is_visible="true"
       id="path-effect4369"
       effect="spiro" />
    <inkscape:path-effect
       effect="spiro"
       id="path-effect4365"
       is_visible="true" />
    <inkscape:path-effect
       is_visible="true"
       id="path-effect4361"
       effect="spiro" />
    <inkscape:path-effect
       effect="spiro"
       id="path-effect4357"
       is_visible="true" />
    <inkscape:path-effect
       is_visible="true"
       id="path-effect4353"
       effect="spiro" />
    <inkscape:path-effect
       effect="spiro"
       id="path-effect4349"
       is_visible="true" />
    <inkscape:path-effect
       is_visible="true"
       id="path-effect4345"
       effect="spiro" />
    <inkscape:path-effect
       effect="spiro"
       id="path-effect4341"
       is_visible="true" />
    <inkscape:path-effect
       is_visible="true"
       id="path-effect4337"
       effect="spiro" />
    <inkscape:path-effect
       effect="spiro"
       id="path-effect4333"
       is_visible="true" />
    <inkscape:path-effect
       is_visible="true"
       id="path-effect4329"
       effect="spiro" />
    <inkscape:path-effect
       effect="spiro"
       id="path-effect4325"
       is_visible="true" />
    <inkscape:path-effect
       is_visible="true"
       id="path-effect4321"
       effect="spiro" />
    <inkscape:path-effect
       effect="spiro"
       id="path-effect4317"
       is_visible="true" />
    <inkscape:path-effect
       is_visible="true"
       id="path-effect4313"
       effect="spiro" />
    <inkscape:path-effect
       effect="spiro"
       id="path-effect4307"
       is_visible="true" />
    <inkscape:path-effect
       is_visible="true"
       id="path-effect4303"
       effect="spiro" />
    <inkscape:path-effect
       effect="spiro"
       id="path-effect4299"
       is_visible="true" />
    <inkscape:path-effect
       is_visible="true"
       id="path-effect4251"
       effect="spiro" />
    <inkscape:path-effect
       is_visible="true"
       id="path-effect4245"
       effect="spiro" />
    <linearGradient
       id="linearGradient4659">
      <stop
         style="stop-color:#c3e4ff;stop-opacity:1"
         offset="0"
         id="stop4661" />
      <stop
         style="stop-color:#00aef3;stop-opacity:1"
         offset="1"
         id="stop4663" />
    </linearGradient>
    <linearGradient
       id="linearGradient5860">
      <stop
         style="stop-color:#00f68f;stop-opacity:0.49402392"
         offset="0"
         id="stop5862" />
      <stop
         style="stop-color:#005f03;stop-opacity:0.23904383"
         offset="1"
         id="stop5864" />
    </linearGradient>
    <linearGradient
       id="linearGradient3789-6">
      <stop
         id="stop3791-0"
         offset="0"
         style="stop-color:#ffffff;stop-opacity:1" />
      <stop
         id="stop3793-4"
         offset="1"
         style="stop-color:#fdc3c3;stop-opacity:1" />
    </linearGradient>
    <clipPath
       clipPathUnits="userSpaceOnUse"
       id="clipPath3374">
      <path
         d="m 207.477,208.121 4707.61,0 0,4700.45 -4707.61,0 0,-4700.45 z"
         id="path3376"
         inkscape:connector-curvature="0" />
    </clipPath>
    <filter
       id="filter4579"
       style="color-interpolation-filters:sRGB"
       inkscape:label="Cutout Glow"
       inkscape:menu="Shadows and Glows"
       inkscape:menu-tooltip="In and out glow with a possible offset and colorizable flood">
      <feOffset
         id="feOffset4581"
         dx="3"
         dy="3" />
      <feGaussianBlur
         id="feGaussianBlur4583"
         result="blur"
         stdDeviation="3" />
      <feFlood
         id="feFlood4585"
         result="flood"
         flood-opacity="1"
         flood-color="rgb(0,0,0)" />
      <feComposite
         id="feComposite4587"
         result="composite"
         operator="in"
         in2="SourceGraphic"
         in="flood" />
      <feBlend
         id="feBlend4589"
         mode="normal"
         in2="composite"
         in="blur" />
    </filter>
    <filter
       id="filter4939"
       inkscape:label="Blur"
       style="color-interpolation-filters:sRGB">
      <feGaussianBlur
         id="feGaussianBlur4941"
         result="blur"
         stdDeviation="8 8" />
    </filter>
    <linearGradient
       gradientUnits="userSpaceOnUse"
       y2="-180.42255"
       x2="-0.70422626"
       y1="-74.788742"
       x1="540.14081"
       id="linearGradient4218"
       xlink:href="#c"
       inkscape:collect="always"
       gradientTransform="matrix(0.99730549,0,0,2.5494962,3.1851261,278.68066)" />
    <inkscape:path-effect
       is_visible="true"
       id="path-effect4251-3"
       effect="spiro" />
    <linearGradient
       id="e"
       x1="3.0227001"
       x2="81.318001"
       y1="6.9993"
       y2="85.810997"
       gradientUnits="userSpaceOnUse"
       xlink:href="#c" />
    <linearGradient
       id="c">
      <stop
         stop-color="#187dcd"
         offset="0"
         id="stop2" />
      <stop
         stop-color="#00cae3"
         offset="1"
         id="stop4" />
    </linearGradient>
    <filter
       style="color-interpolation-filters:sRGB"
       id="a">
      <feBlend
         in2="BackgroundImage"
         mode="saturation"
         id="feBlend21" />
    </filter>
    <linearGradient
       id="e-1"
       x1="3.0227001"
       x2="81.318001"
       y1="6.9993"
       y2="85.810997"
       gradientUnits="userSpaceOnUse"
       xlink:href="#c" />
    <filter
       style="color-interpolation-filters:sRGB"
       id="a-8">
      <feBlend
         in2="BackgroundImage"
         mode="saturation"
         id="feBlend21-7" />
    </filter>
    <linearGradient
       id="i"
       x1="59.130001"
       x2="84.822998"
       y1="71.835999"
       y2="71.835999"
       gradientUnits="userSpaceOnUse"
       xlink:href="#b" />
    <linearGradient
       id="b">
      <stop
         stop-color="#187dcd"
         offset="0"
         id="stop14" />
      <stop
         stop-color="#00c6de"
         offset="1"
         id="stop16" />
    </linearGradient>
    <filter
       style="color-interpolation-filters:sRGB"
       id="filter917">
      <feBlend
         in2="BackgroundImage"
         mode="saturation"
         id="feBlend915" />
    </filter>
    <linearGradient
       id="s"
       x1="13.417"
       x2="46.825001"
       y1="30.233999"
       y2="30.233999"
       gradientUnits="userSpaceOnUse"
       xlink:href="#linearGradient1271" />
    <linearGradient
       id="linearGradient1271">
      <stop
         id="stop1267"
         offset="0"
         stop-color="#187dcd"
         style="stop-color:#ff6600;stop-opacity:1" />
      <stop
         id="stop1269"
         offset="1"
         stop-color="#00c6de"
         style="stop-color:#ffcc00;stop-opacity:1" />
    </linearGradient>
    <filter
       style="color-interpolation-filters:sRGB"
       id="filter925">
      <feBlend
         in2="BackgroundImage"
         mode="saturation"
         id="feBlend923" />
    </filter>
    <linearGradient
       id="q"
       x1="42.637001"
       x2="79.830002"
       y1="27.011999"
       y2="27.011999"
       gradientUnits="userSpaceOnUse"
       xlink:href="#b" />
    <filter
       style="color-interpolation-filters:sRGB"
       id="filter936">
      <feBlend
         in2="BackgroundImage"
         mode="saturation"
         id="feBlend934" />
    </filter>
    <linearGradient
       id="n"
       x1="31.544001"
       x2="64.952003"
       y1="48.361"
       y2="48.361"
       gradientUnits="userSpaceOnUse"
       xlink:href="#b" />
    <filter
       style="color-interpolation-filters:sRGB"
       id="filter947">
      <feBlend
         in2="BackgroundImage"
         mode="saturation"
         id="feBlend945" />
    </filter>
    <linearGradient
       id="j"
       x1="30.296"
       x2="64.476997"
       y1="74.261002"
       y2="74.261002"
       gradientUnits="userSpaceOnUse"
       xlink:href="#b" />
    <filter
       style="color-interpolation-filters:sRGB"
       id="filter958">
      <feBlend
         in2="BackgroundImage"
         mode="saturation"
         id="feBlend956" />
    </filter>
    <linearGradient
       id="k"
       x1="23.122999"
       x2="34.422001"
       y1="77.504997"
       y2="77.504997"
       gradientUnits="userSpaceOnUse"
       xlink:href="#b" />
    <filter
       style="color-interpolation-filters:sRGB"
       id="filter969">
      <feBlend
         in2="BackgroundImage"
         mode="saturation"
         id="feBlend967" />
    </filter>
    <linearGradient
       id="m"
       x1="9.8877001"
       x2="44.070999"
       y1="61.118"
       y2="61.118"
       gradientUnits="userSpaceOnUse"
       xlink:href="#b" />
    <filter
       style="color-interpolation-filters:sRGB"
       id="filter980">
      <feBlend
         in2="BackgroundImage"
         mode="saturation"
         id="feBlend978" />
    </filter>
    <linearGradient
       id="l"
       x1="5.2609"
       x2="13.802"
       y1="60.535999"
       y2="60.535999"
       gradientUnits="userSpaceOnUse"
       xlink:href="#b" />
    <filter
       style="color-interpolation-filters:sRGB"
       id="filter991">
      <feBlend
         in2="BackgroundImage"
         mode="saturation"
         id="feBlend989" />
    </filter>
    <linearGradient
       id="t"
       x1="1.9809"
       x2="22.530001"
       y1="40.337002"
       y2="40.337002"
       gradientUnits="userSpaceOnUse"
       xlink:href="#b" />
    <filter
       style="color-interpolation-filters:sRGB"
       id="filter1002">
      <feBlend
         in2="BackgroundImage"
         mode="saturation"
         id="feBlend1000" />
    </filter>
    <linearGradient
       id="u"
       x1="22.32"
       x2="58.438"
       y1="12.282"
       y2="12.282"
       gradientUnits="userSpaceOnUse"
       xlink:href="#b" />
    <filter
       style="color-interpolation-filters:sRGB"
       id="filter1013">
      <feBlend
         in2="BackgroundImage"
         mode="saturation"
         id="feBlend1011" />
    </filter>
    <linearGradient
       id="o"
       x1="64.490997"
       x2="84.334999"
       y1="47.333"
       y2="47.333"
       gradientUnits="userSpaceOnUse"
       xlink:href="#b" />
    <filter
       style="color-interpolation-filters:sRGB"
       id="filter1024">
      <feBlend
         in2="BackgroundImage"
         mode="saturation"
         id="feBlend1022" />
    </filter>
    <linearGradient
       id="p"
       x1="73.128998"
       x2="82.244003"
       y1="28.764"
       y2="28.764"
       gradientUnits="userSpaceOnUse"
       xlink:href="#b" />
    <filter
       style="color-interpolation-filters:sRGB"
       id="filter1035">
      <feBlend
         in2="BackgroundImage"
         mode="saturation"
         id="feBlend1033" />
    </filter>
    <linearGradient
       inkscape:collect="always"
       xlink:href="#c"
       id="linearGradient1194"
       x1="1.2081113"
       y1="16.121401"
       x2="31.030375"
       y2="16.121401"
       gradientUnits="userSpaceOnUse" />
    <filter
       style="color-interpolation-filters:sRGB"
       id="filter1046">
      <feBlend
         in2="BackgroundImage"
         mode="saturation"
         id="feBlend1044" />
    </filter>
    <linearGradient
       id="r"
       x1="52.041"
       x2="69.361"
       y1="9.5636997"
       y2="9.5636997"
       gradientUnits="userSpaceOnUse"
       xlink:href="#b" />
    <filter
       style="color-interpolation-filters:sRGB"
       id="filter1057">
      <feBlend
         in2="BackgroundImage"
         mode="saturation"
         id="feBlend1055" />
    </filter>
    <linearGradient
       id="h"
       x1="2.5165"
       x2="83.079002"
       y1="6.8067002"
       y2="87.249001"
       gradientTransform="matrix(0.91974,0,0,0.91772,3.6388,-0.031928)"
       gradientUnits="userSpaceOnUse"
       xlink:href="#linearGradient1186" />
    <linearGradient
       osb:paint="gradient"
       id="linearGradient1186">
      <stop
         style="stop-color:#f9f9f9;stop-opacity:1"
         id="stop1180"
         offset="0"
         stop-color="#ebf1f1" />
      <stop
         id="stop1182"
         offset=".50806"
         stop-color="#97f4f4" />
      <stop
         id="stop1184"
         offset="1"
         stop-color="#cef7f7"
         style="stop-color:#f9f9f9;stop-opacity:1" />
    </linearGradient>
    <filter
       style="color-interpolation-filters:sRGB"
       inkscape:label="Drop Shadow"
       id="filter1053">
      <feFlood
         flood-opacity="0.498039"
         flood-color="rgb(26,26,26)"
         result="flood"
         id="feFlood1043" />
      <feComposite
         in="flood"
         in2="SourceGraphic"
         operator="in"
         result="composite1"
         id="feComposite1045" />
      <feGaussianBlur
         in="composite1"
         stdDeviation="0.3"
         result="blur"
         id="feGaussianBlur1047" />
      <feOffset
         dx="0.2"
         dy="0.2"
         result="offset"
         id="feOffset1049" />
      <feComposite
         in="SourceGraphic"
         in2="offset"
         operator="over"
         result="composite2"
         id="feComposite1051" />
    </filter>
    <linearGradient
       id="g"
       x1="73.413002"
       x2="14.268"
       y1="14.27"
       y2="73.414001"
       gradientUnits="userSpaceOnUse">
      <stop
         stop-color="#fff"
         offset="0"
         id="stop39" />
      <stop
         stop-color="#ffd42a"
         offset=".5"
         id="stop41"
         style="stop-color:#e9e9e9;stop-opacity:1" />
      <stop
         stop-color="#fff"
         offset="1"
         id="stop43" />
    </linearGradient>
    <filter
       style="color-interpolation-filters:sRGB"
       id="filter1076">
      <feBlend
         in2="BackgroundImage"
         mode="saturation"
         id="feBlend1074" />
    </filter>
    <filter
       style="color-interpolation-filters:sRGB;"
       inkscape:label="Drop Shadow"
       id="filter1623">
      <feFlood
         flood-opacity="1"
         flood-color="rgb(0,0,0)"
         result="flood"
         id="feFlood1613" />
      <feComposite
         in="flood"
         in2="SourceGraphic"
         operator="in"
         result="composite1"
         id="feComposite1615" />
      <feGaussianBlur
         in="composite1"
         stdDeviation="2"
         result="blur"
         id="feGaussianBlur1617" />
      <feOffset
         dx="1.5"
         dy="1.5"
         result="offset"
         id="feOffset1619" />
      <feComposite
         in="SourceGraphic"
         in2="offset"
         operator="over"
         result="composite2"
         id="feComposite1621" />
    </filter>
    <filter
       style="color-interpolation-filters:sRGB;"
       inkscape:label="Drop Shadow"
       id="filter1671">
      <feFlood
         flood-opacity="0.431373"
         flood-color="rgb(0,0,0)"
         result="flood"
         id="feFlood1661" />
      <feComposite
         in="flood"
         in2="SourceGraphic"
         operator="in"
         result="composite1"
         id="feComposite1663" />
      <feGaussianBlur
         in="composite1"
         stdDeviation="2.5"
         result="blur"
         id="feGaussianBlur1665" />
      <feOffset
         dx="3.5"
         dy="3.5"
         result="offset"
         id="feOffset1667" />
      <feComposite
         in="SourceGraphic"
         in2="offset"
         operator="over"
         result="composite2"
         id="feComposite1669" />
    </filter>
    <linearGradient
       inkscape:collect="always"
       xlink:href="#c"
       id="linearGradient1679"
       x1="20.194626"
       y1="133.34618"
       x2="526.98315"
       y2="133.34618"
       gradientUnits="userSpaceOnUse" />
    <linearGradient
       inkscape:collect="always"
       xlink:href="#linearGradient1695"
       id="linearGradient1687"
       x1="275.59122"
       y1="162.81836"
       x2="275.59122"
       y2="107.73537"
       gradientUnits="userSpaceOnUse"
       gradientTransform="translate(-20.633037,-19.86885)" />
    <filter
       style="color-interpolation-filters:sRGB;"
       inkscape:label="Drop Shadow"
       id="filter1707">
      <feFlood
         flood-opacity="0.431373"
         flood-color="rgb(0,0,0)"
         result="flood"
         id="feFlood1697" />
      <feComposite
         in="flood"
         in2="SourceGraphic"
         operator="in"
         result="composite1"
         id="feComposite1699" />
      <feGaussianBlur
         in="composite1"
         stdDeviation="2.5"
         result="blur"
         id="feGaussianBlur1701" />
      <feOffset
         dx="3.5"
         dy="3.5"
         result="offset"
         id="feOffset1703" />
      <feComposite
         in="SourceGraphic"
         in2="offset"
         operator="over"
         result="composite2"
         id="feComposite1705" />
    </filter>
    <linearGradient
       inkscape:collect="always"
       xlink:href="#linearGradient1715"
       id="linearGradient1721"
       gradientUnits="userSpaceOnUse"
       x1="-15.130122"
       y1="211.1006"
       x2="557.11353"
       y2="211.1006"
       gradientTransform="matrix(0.91450166,0,0,1.0535714,16.319319,-10.411575)" />
  </defs>
  <metadata
     id="metadata7">
    <rdf:RDF>
      <cc:Work
         rdf:about="">
        <dc:format>image/svg+xml</dc:format>
        <dc:type
           rdf:resource="http://purl.org/dc/dcmitype/StillImage" />
        <dc:title></dc:title>
      </cc:Work>
    </rdf:RDF>
  </metadata>
  <g
     inkscape:label="Ebene 4"
     id="layer5"
     inkscape:groupmode="layer"
     style="display:inline">
    <g
       transform="matrix(6.062258,-6.062258,6.062258,6.062258,-253.20199,132.79592)"
       id="g96">
      <path
         style="fill:url(#e-1);filter:url(#a-8)"
         inkscape:connector-curvature="0"
         d="M 1.723,4.3 H 43 c 23.583,0 42.7,19.118 42.7,42.7 v 41.277 c 0,0.786 -0.637,1.423 -1.423,1.423 H 43 C 19.417,89.7 0.3,70.582 0.3,47 V 5.723 C 0.3,4.937 0.937,4.3 1.723,4.3 Z"
         id="path94"
         transform="translate(0,-4)" />
    </g>
    <g
       transform="matrix(6.062258,-6.062258,6.062258,6.062258,-253.20199,132.79592)"
       id="g88">
      <path
         style="fill:url(#g);stroke-width:0.99439001;filter:url(#a-8)"
         inkscape:connector-curvature="0"
         d="m 5.2227,3.9141 c -0.72291,0 -1.3086,0.58531 -1.3086,1.3066 v 37.881 c 0,21.642 17.583,39.186 39.273,39.186 h 37.965 c 0.72291,0 1.3086,-0.58336 1.3086,-1.3047 V 43.102 c 0,-21.642 -17.583,-39.187 -39.273,-39.187 z m 3.25,3.3535 h 2.832 C 11.17195,8.3164 10.73948,9.2949 9.9746,10.0567 9.23495,10.79333 8.2907,11.2114 7.2773,11.3575 V 8.461 c -1e-7,-0.6593 0.53457,-1.1934 1.1953,-1.1934 z m 3.8066,0 h 3.6855 c -0.0186,2.3454 -0.83318,4.5783 -2.5137,6.252 -1.6557,1.649 -3.8563,2.4589 -6.1738,2.5 V 12.3419 C 8.5396,12.18628 9.7331,11.67135 10.666,10.7423 11.62352,9.78869 12.14,8.562 12.2793,7.2677 Z m 4.6543,0 h 3.6406 c 0.12784,3.6322 -1.0514,7.1304 -3.6465,9.7148 -2.571,2.5604 -6.0402,3.7306 -9.6504,3.6289 v -3.6289 c 2.5554,-0.04219 5.0128,-0.93445 6.8633,-2.7773 1.8756,-1.8679 2.7729,-4.3562 2.793,-6.9375 z m 4.6172,0 h 3.6504 c 0.28243,4.916 -1.2835,9.6826 -4.793,13.178 -3.4848,3.4706 -8.2305,5.0251 -13.131,4.7695 v -3.6328 c 3.845,0.10044 7.576,-1.1556 10.344,-3.9121 2.7915,-2.7801 4.0547,-6.537 3.9297,-10.402 z m 4.6348,0 h 3.6172 c 0.43909,6.1957 -1.4926,12.231 -5.916,16.637 -4.3999,4.3819 -10.422,6.3107 -16.609,5.9004 v -3.6133 c 5.1343,0.25218 10.137,-1.3904 13.82,-5.0586 3.7069,-3.6917 5.3653,-8.7178 5.0879,-13.865 z m 4.584,0 h 7.3418 C 36.0732,8.804 33.4583,9.3461 30.8321,8.8946 30.8308,8.35439 30.80616,7.8109 30.7696,7.2676 Z m 8.8594,0 h 3.543 c 0.44635,0 0.88963,0.019039 1.332,0.035156 -0.54216,0.96867 -1.2114,1.8769 -2.0273,2.6895 -3.1387,3.1259 -7.6127,4.2239 -12.053,3.4023 0.21881,-1.1548 0.34222,-2.3362 0.38672,-3.5254 3.2205,0.51171 6.4871,-0.31964 8.8184,-2.6016 z m 5.9531,0.089844 c 1.3612,0.090137 2.7001,0.25676 4.0156,0.49414 -0.80204,2.0664 -2.0078,3.9734 -3.6426,5.6016 -4.3559,4.3381 -10.679,5.7008 -16.816,4.25 0.44748,-1.0881 0.80525,-2.2142 1.0742,-3.3633 4.7265,0.88364 9.5618,-0.28269 12.955,-3.6621 0.99867,-0.99458 1.7958,-2.1158 2.4141,-3.3203 z m 4.9922,0.67773 c 1.2674,0.26519 2.5083,0.60134 3.7227,0.99609 -0.97589,2.925 -2.5903,5.6192 -4.8633,7.8828 -5.7938,5.7701 -14.397,7.3087 -22.492,4.8184 0.69295,-0.99435 1.2905,-2.0381 1.7969,-3.123 6.4771,1.5871 13.251,0.17168 17.91,-4.4688 1.7788,-1.7716 3.0774,-3.8535 3.9258,-6.1055 z m 4.6484,1.3086 c 1.5091,0.5367 2.9707,1.1736 4.3789,1.8984 -1.6107,0.01508 -3.248,-0.1666 -4.873,-0.55078 0.1822,-0.44302 0.3454,-0.89231 0.49414,-1.3477 z m -0.89648,2.2539 c 2.3001,0.56359 4.6347,0.74142 6.9004,0.53516 1.5517,0.90308 3.0296,1.9158 4.4219,3.0332 -4.1674,1.0641 -8.7156,0.9087 -13.117,-0.44531 0.69295,-0.99435 1.2886,-2.0381 1.7949,-3.123 z m -2.4297,3.9746 c 1.097,0.35223 2.2068,0.63165 3.3184,0.83984 0.54307,1.8703 0.17289,3.811 -1.1445,5.123 -1.3176,1.3122 -3.2662,1.6779 -5.1445,1.1367 -0.20894,-1.1068 -0.49032,-2.2045 -0.84375,-3.2969 0.70795,-0.54308 1.3931,-1.1262 2.0391,-1.7695 0.64612,-0.64348 1.23,-1.328 1.7754,-2.0332 z m 14.662,0.35352 c 0.9546,0.81919 1.8652,1.6859 2.7285,2.5996 0.34334,4.9943 -1.2229,9.8507 -4.7852,13.398 -4.3559,4.3381 -10.679,5.7008 -16.816,4.25 0.44748,-1.0881 0.80525,-2.2142 1.0742,-3.3633 4.7265,0.88364 9.5618,-0.28269 12.955,-3.6621 3.3932,-3.3793 4.5678,-8.1965 3.6797,-12.904 0.39316,-0.09128 0.77746,-0.20748 1.1641,-0.31836 z m -2.1191,0.53125 c 0.82588,4.4226 -0.27722,8.878 -3.416,12.004 -3.1387,3.1259 -7.6127,4.2259 -12.053,3.4043 0.21881,-1.1548 0.34027,-2.3362 0.38477,-3.5254 3.2472,0.51596 6.546,-0.32901 8.8809,-2.6543 2.3358,-2.3263 3.1836,-5.6116 2.666,-8.8457 1.1939,-0.04433 2.3776,-0.1649 3.5371,-0.38281 z m -8.168,0.13477 c 1.2195,0.17783 2.4395,0.26839 3.6504,0.27148 0.52091,3.0085 -0.24941,6.0159 -2.377,8.1348 -2.1266,2.1179 -5.1474,2.8866 -8.168,2.3672 -0.003,-1.2058 -0.093,-2.4223 -0.27148,-3.6367 2.0417,0.44486 4.1719,-0.02949 5.6543,-1.5059 1.4823,-1.4763 1.9583,-3.5976 1.5117,-5.6309 z m 14.045,3.0703 c 1.2274,1.4148 2.346,2.9239 3.3418,4.5195 -0.68931,4.1991 -2.5667,8.1048 -5.6777,11.203 -5.7938,5.7701 -14.397,7.3087 -22.492,4.8184 0.69295,-0.99435 1.2905,-2.0381 1.7969,-3.123 6.4771,1.5871 13.249,0.16973 17.908,-4.4707 3.4869,-3.4726 5.1667,-8.1232 5.123,-12.947 z m -23.064,0.31445 c 2.5001,8.0626 0.9566,16.63 -4.8379,22.4 -5.7938,5.7701 -14.397,7.3067 -22.492,4.8164 0.69295,-0.99435 1.2905,-2.0361 1.7969,-3.1211 6.4771,1.5871 13.249,0.16973 17.908,-4.4707 4.6606,-4.6415 6.0926,-11.389 4.4961,-17.84 1.0862,-0.50345 2.1333,-1.097 3.1289,-1.7852 z m -4.043,2.1914 c 1.4589,6.1129 0.0834,12.409 -4.2734,16.748 -4.3559,4.3381 -10.679,5.6989 -16.816,4.248 0.44748,-1.0881 0.80525,-2.2122 1.0742,-3.3613 4.7265,0.88364 9.5618,-0.28269 12.955,-3.6621 3.3932,-3.3793 4.5678,-8.1985 3.6797,-12.906 1.1566,-0.26852 2.2858,-0.61922 3.3809,-1.0664 z m -16.879,0.39648 c 1.097,0.35223 2.2048,0.63165 3.3164,0.83984 0.54307,1.8703 0.17289,3.811 -1.1445,5.123 -1.3176,1.3122 -3.2642,1.6759 -5.1426,1.1348 -0.20894,-1.1068 -0.49032,-2.2045 -0.84375,-3.2969 0.70795,-0.54308 1.3931,-1.1262 2.0391,-1.7695 0.64612,-0.64348 1.23,-1.326 1.7754,-2.0312 z m 12.543,0.88281 c 0.82588,4.4226 -0.27722,8.8799 -3.416,12.006 -3.1387,3.1259 -7.6127,4.2239 -12.053,3.4023 0.21881,-1.1548 0.34222,-2.3362 0.38672,-3.5254 3.2472,0.51596 6.5421,-0.32901 8.877,-2.6543 2.3358,-2.3263 3.1856,-5.6096 2.668,-8.8438 1.1939,-0.04433 2.3776,-0.16685 3.5371,-0.38476 z m -8.168,0.13672 c 1.2195,0.17783 2.4395,0.26648 3.6504,0.26953 0.52091,3.0085 -0.24941,6.0179 -2.377,8.1367 -2.1266,2.1179 -5.1455,2.8846 -8.166,2.3652 -0.003,-1.2058 -0.093,-2.4204 -0.27148,-3.6348 2.0417,0.44486 4.1699,-0.03145 5.6523,-1.5078 1.4823,-1.4763 1.9583,-3.5956 1.5117,-5.6289 z m 43.643,2.2109 c 0.09692,0.01812 0.19402,0.0305 0.29102,0.04687 0.67585,1.2253 1.2757,2.4973 1.8066,3.8047 -1.0554,-0.08213 -2.1145,-0.23876 -3.1699,-0.48828 0.44748,-1.0881 0.8033,-2.2142 1.0723,-3.3633 z m -52.66,1.1738 c 2.5001,8.0626 0.9566,16.628 -4.8379,22.398 -2.2452,2.236 -4.9142,3.8324 -7.8105,4.8086 -0.39586,-1.2136 -0.73244,-2.454 -0.99805,-3.7207 2.2186,-0.8436 4.2718,-2.1188 6.0215,-3.8613 4.6606,-4.6415 6.0926,-11.39 4.4961,-17.842 1.0862,-0.50345 2.1333,-1.095 3.1289,-1.7832 z m -4.043,2.1914 c 1.4589,6.1129 0.0834,12.407 -4.2734,16.746 -1.6046,1.598 -3.4804,2.7792 -5.5117,3.5762 -0.23747,-1.3131 -0.4063,-2.6491 -0.49609,-4.0078 1.1646,-0.6069 2.2544,-1.3814 3.2207,-2.3438 3.3932,-3.3793 4.5678,-8.1965 3.6797,-12.904 1.1566,-0.26852 2.2858,-0.61922 3.3809,-1.0664 z m 55.229,0.9043 c 1.3178,0.3229 2.6473,0.51261 3.9688,0.58398 0.44259,1.1926 0.82165,2.4155 1.1367,3.6641 -2.2919,-0.05333 -4.6159,-0.42165 -6.9023,-1.125 0.69295,-0.99435 1.2905,-2.0381 1.7969,-3.123 z m -59.564,0.375 c 0.82588,4.4226 -0.27917,8.878 -3.418,12.004 -0.78288,0.77968 -1.6521,1.4245 -2.5801,1.9531 -0.015774,-0.43625 -0.033203,-0.87046 -0.033203,-1.3105 v -3.6152 c 2.196,-2.3131 2.9979,-5.5009 2.4941,-8.6484 1.1939,-0.04433 2.3776,-0.1649 3.5371,-0.38281 z m -6.0313,0.34766 c 0.50561,0.03204 1.0107,0.0573 1.5137,0.05859 0.44194,2.5524 -0.056582,5.0984 -1.5137,7.1074 z m 63.168,3.2559 c 1.097,0.35223 2.2048,0.63165 3.3164,0.83984 0.54307,1.8703 0.17094,3.811 -1.1465,5.123 -1.3176,1.3122 -3.2642,1.6779 -5.1426,1.1367 -0.20894,-1.1068 -0.48837,-2.2045 -0.8418,-3.2969 0.70795,-0.54308 1.3931,-1.1262 2.0391,-1.7695 0.64612,-0.64348 1.23,-1.328 1.7754,-2.0332 z m 4.373,1.0195 c 1.1334,0.16528 2.2679,0.24554 3.3945,0.25977 0.15352,0.69304 0.2897,1.3921 0.40234,2.0996 -0.06428,2.2707 -0.88947,4.4215 -2.5215,6.0469 -2.1266,2.1179 -5.1474,2.8866 -8.168,2.3672 -0.003,-1.2058 -0.093,-2.4223 -0.27148,-3.6367 2.0417,0.44486 4.1719,-0.02949 5.6543,-1.5059 1.4823,-1.4763 1.9564,-3.5976 1.5098,-5.6309 z m -9.0195,3.3848 c 2.5001,8.0626 0.9566,16.628 -4.8379,22.398 -5.7938,5.7701 -14.397,7.3087 -22.492,4.8184 0.69295,-0.99435 1.2886,-2.0361 1.7949,-3.1211 6.4771,1.5871 13.251,0.16973 17.91,-4.4707 4.6606,-4.6415 6.0926,-11.389 4.4961,-17.84 1.0862,-0.50345 2.1333,-1.097 3.1289,-1.7852 z m -4.043,2.1914 c 1.4589,6.1129 0.0834,12.407 -4.2734,16.746 -4.3559,4.3381 -10.679,5.7008 -16.816,4.25 0.44748,-1.0881 0.8033,-2.2122 1.0723,-3.3613 4.7265,0.88364 9.5618,-0.28269 12.955,-3.6621 3.3932,-3.3793 4.5698,-8.1985 3.6816,-12.906 1.1566,-0.26852 2.2858,-0.61922 3.3809,-1.0664 z m 17.221,0.02539 c 0.05361,0.80079 0.08984,1.6075 0.08984,2.4219 v 4.3145 c -3.1034,2.7623 -7.3386,3.7142 -11.547,2.9355 0.21881,-1.1548 0.34027,-2.3362 0.38477,-3.5254 3.2472,0.51596 6.546,-0.32901 8.8809,-2.6543 1.0131,-1.0089 1.7278,-2.2052 2.1914,-3.4922 z m -34.1,0.37109 c 1.097,0.35223 2.2048,0.63166 3.3164,0.83984 0.54307,1.8703 0.17289,3.811 -1.1445,5.123 -1.3176,1.3122 -3.2662,1.6759 -5.1445,1.1348 -0.20894,-1.1068 -0.48837,-2.2045 -0.8418,-3.2969 0.70795,-0.54309 1.3931,-1.1262 2.0391,-1.7695 0.64612,-0.64348 1.23,-1.326 1.7754,-2.0312 z m 12.543,0.88281 c 0.82588,4.4226 -0.27917,8.878 -3.418,12.004 -3.1387,3.1259 -7.6107,4.2259 -12.051,3.4043 0.21881,-1.1548 0.34027,-2.3362 0.38477,-3.5254 3.2472,0.51596 6.5441,-0.32901 8.8789,-2.6543 2.3358,-2.3263 3.1856,-5.6096 2.668,-8.8438 1.1939,-0.04433 2.3776,-0.16685 3.5371,-0.38476 z m -8.1699,0.13476 c 1.2195,0.17783 2.4414,0.26843 3.6523,0.27148 0.52091,3.0085 -0.24941,6.0179 -2.377,8.1367 -2.1266,2.1179 -5.1455,2.8846 -8.166,2.3652 -0.003,-1.2058 -0.09495,-2.4223 -0.27344,-3.6367 2.0417,0.44486 4.1719,-0.02949 5.6543,-1.5059 1.4823,-1.4763 1.9564,-3.5976 1.5098,-5.6309 z m -9.0176,3.3867 c 2.5001,8.0626 0.9566,16.628 -4.8379,22.398 -3.0991,3.0864 -7.0041,4.9497 -11.203,5.6426 -1.592,-0.99184 -3.0978,-2.1052 -4.5098,-3.3262 4.8168,0.02778 9.4553,-1.6355 12.924,-5.0898 4.6606,-4.6415 6.0946,-11.39 4.498,-17.842 1.0862,-0.50345 2.1333,-1.095 3.1289,-1.7832 z m -4.043,2.1895 c 1.4589,6.1129 0.0834,12.409 -4.2734,16.748 -3.5384,3.5239 -8.3753,5.0838 -13.355,4.7676 -0.94368,-0.88767 -1.8387,-1.8263 -2.6816,-2.8105 0.10184,-0.35556 0.21047,-0.7095 0.29492,-1.0703 4.7265,0.88364 9.5618,-0.28269 12.955,-3.6621 3.3932,-3.3793 4.5678,-8.1965 3.6797,-12.904 1.1566,-0.26852 2.2858,-0.62118 3.3809,-1.0684 z m -16.879,0.39648 c 1.097,0.35223 2.2068,0.63165 3.3184,0.83984 0.54307,1.8703 0.17094,3.811 -1.1465,5.123 -1.3176,1.3122 -3.2662,1.6779 -5.1445,1.1367 -0.20894,-1.1068 -0.48837,-2.2064 -0.8418,-3.2988 0.70795,-0.54308 1.3931,-1.1243 2.0391,-1.7676 0.64612,-0.64348 1.23,-1.328 1.7754,-2.0332 z m 59.756,0.64258 v 4.6172 c -3.8274,1.9739 -8.3768,2.4107 -12.832,1.3574 0.44748,-1.0881 0.8033,-2.2122 1.0723,-3.3613 4.1969,0.78464 8.477,-0.05104 11.76,-2.6133 z m -47.213,0.24219 c 0.82588,4.4226 -0.27917,8.878 -3.418,12.004 -3.1387,3.1259 -7.6107,4.2259 -12.051,3.4043 0.21881,-1.1548 0.34027,-2.3362 0.38476,-3.5254 3.2472,0.51596 6.5441,-0.32901 8.8789,-2.6543 2.3358,-2.3263 3.1856,-5.6116 2.668,-8.8457 1.1939,-0.04433 2.3776,-0.1649 3.5371,-0.38281 z m -8.1699,0.13477 c 1.2195,0.17783 2.4414,0.26839 3.6523,0.27148 0.52091,3.0085 -0.24941,6.0159 -2.377,8.1348 -2.1266,2.1179 -5.1474,2.8866 -8.168,2.3672 -0.003,-1.2058 -0.093,-2.4223 -0.27148,-3.6367 2.0417,0.44486 4.1719,-0.02949 5.6543,-1.5059 1.4823,-1.4763 1.9564,-3.5976 1.5098,-5.6309 z m -9.0137,3.3828 c 1.3532,4.3642 1.5114,8.8733 0.45898,13.008 -1.1208,-1.3983 -2.1354,-2.8833 -3.0391,-4.4414 0.19255,-2.2275 0.01,-4.5212 -0.54883,-6.7793 1.0862,-0.50345 2.1333,-1.0989 3.1289,-1.7871 z m 64.396,1.9453 v 4.1719 c -4.663,1.6641 -9.9454,1.6928 -15.029,0.12891 0.69295,-0.99435 1.2905,-2.0381 1.7969,-3.123 4.5444,1.1135 9.2291,0.74193 13.232,-1.1777 z m -68.438,0.24609 c 0.37483,1.5705 0.5588,3.1526 0.55664,4.7109 -0.69918,-1.3679 -1.3168,-2.7837 -1.8379,-4.2461 0.43121,-0.14045 0.86095,-0.2932 1.2812,-0.46484 z m 52.793,4.8828 c 1.097,0.35223 2.2068,0.63165 3.3184,0.83984 0.54307,1.8703 0.17289,3.8091 -1.1445,5.1211 -1.3176,1.3122 -3.2662,1.6779 -5.1445,1.1367 -0.20894,-1.1068 -0.49032,-2.2045 -0.84375,-3.2969 0.70795,-0.54308 1.3951,-1.1262 2.041,-1.7695 0.64612,-0.64348 1.228,-1.326 1.7734,-2.0312 z m 15.645,0.04883 v 12.072 c -0.76629,1.5389 -1.7729,2.9695 -3.0391,4.2305 -1.2794,1.2742 -2.7307,2.2821 -4.2949,3.0469 h -12.084 c 0.24386,-0.71007 0.46508,-1.4269 0.63672,-2.1602 4.7265,0.88364 9.5618,-0.28269 12.955,-3.6621 3.3932,-3.3793 4.5698,-8.1985 3.6816,-12.906 0.72802,-0.16902 1.4398,-0.3833 2.1445,-0.62109 z m -3.0996,0.83398 c 0.82588,4.4226 -0.27917,8.878 -3.418,12.004 -3.1387,3.1259 -7.6107,4.2259 -12.051,3.4043 0.21881,-1.1548 0.34027,-2.3362 0.38476,-3.5254 3.2472,0.51596 6.5441,-0.32901 8.8789,-2.6543 2.3358,-2.3263 3.1856,-5.6096 2.668,-8.8438 1.1939,-0.04433 2.3776,-0.16685 3.5371,-0.38476 z m -8.1699,0.13672 c 1.2195,0.17783 2.4395,0.26644 3.6504,0.26953 0.52092,3.0085 -0.24941,6.0159 -2.377,8.1348 -2.1266,2.1179 -5.1435,2.8866 -8.1641,2.3672 -0.003,-1.2058 -0.093,-2.4223 -0.27148,-3.6367 2.0417,0.44486 4.168,-0.02949 5.6504,-1.5059 1.4823,-1.4763 1.9583,-3.5956 1.5117,-5.6289 z m -9.0156,3.3887 c 1.5729,5.0724 1.5429,10.341 -0.13672,14.99 h -4.1934 c 1.9403,-3.9931 2.3215,-8.672 1.1992,-13.207 1.0862,-0.50345 2.1352,-1.095 3.1309,-1.7832 z m -4.043,2.1895 c 1.0611,4.4459 0.6135,8.9848 -1.3809,12.801 h -4.6445 c 2.5851,-3.2723 3.4347,-7.5441 2.6445,-11.732 1.1566,-0.26852 2.2858,-0.62118 3.3809,-1.0684 z m -16.879,0.39648 c 1.097,0.35223 2.2029,0.63165 3.3145,0.83984 0.54307,1.8703 0.17289,3.811 -1.1445,5.123 -1.3176,1.3122 -3.2642,1.6779 -5.1426,1.1367 -0.20894,-1.1068 -0.48837,-2.2064 -0.8418,-3.2988 0.70795,-0.54308 1.3931,-1.1243 2.0391,-1.7676 0.64612,-0.64348 1.23,-1.328 1.7754,-2.0332 z m 12.543,0.88476 c 0.78433,4.2001 -0.17614,8.427 -2.9629,11.52 h -4.2676 c -0.84598,0 -1.6823,-0.04021 -2.5137,-0.09766 1.3048,-0.46075 2.5176,-1.1761 3.5391,-2.1934 2.3358,-2.3263 3.1836,-5.6116 2.666,-8.8457 1.1939,-0.04433 2.3796,-0.1649 3.5391,-0.38281 z m -8.1699,0.13477 c 1.2195,0.17783 2.4414,0.26839 3.6523,0.27148 0.52091,3.0085 -0.24941,6.0159 -2.377,8.1348 -1.6425,1.6358 -3.8183,2.4577 -6.1152,2.5117 -0.69416,-0.11218 -1.3823,-0.24714 -2.0625,-0.39844 -0.01414,-1.1228 -0.09571,-2.2552 -0.26172,-3.3848 2.0417,0.44486 4.1719,-0.02754 5.6543,-1.5039 1.4823,-1.4763 1.9564,-3.5976 1.5098,-5.6309 z m -9.0176,3.3848 c 0.70927,2.2874 1.0839,4.614 1.1348,6.9062 -1.2506,-0.31539 -2.4754,-0.69421 -3.6699,-1.1367 -0.07095,-1.3264 -0.26655,-2.6622 -0.59375,-3.9844 1.0862,-0.50345 2.1333,-1.097 3.1289,-1.7852 z m -4.043,2.1914 c 0.25242,1.0576 0.40914,2.1186 0.49023,3.1758 -1.3151,-0.5336 -2.5922,-1.1371 -3.8242,-1.8164 -0.01659,-0.09741 -0.02852,-0.19563 -0.04687,-0.29297 1.1566,-0.26852 2.2858,-0.61922 3.3809,-1.0664 z m 49.895,0.51953 v 4.0957 c 0,0.6593 -0.53457,1.1934 -1.1953,1.1934 h -4.1328 c 1.0624,-0.66522 2.0654,-1.448 2.9824,-2.3613 0.90525,-0.90154 1.6826,-1.8849 2.3457,-2.9277 z"
         id="path86"
         inkscape:export-filename="/home/mo/Dokumente/Icons for Sailfish/fishtheke4_86.png"
         inkscape:export-xdpi="87.78466"
         inkscape:export-ydpi="87.78466" />
    </g>
    <g
       transform="matrix(6.062258,-6.062258,6.062258,6.062258,-253.20199,132.79592)"
       id="g54">
      <path
         inkscape:connector-curvature="0"
         d="m 5.2227,3.9141 c -0.72291,0 -1.3086,0.58531 -1.3086,1.3066 v 37.881 c 0,21.642 17.583,39.186 39.273,39.186 h 37.965 c 0.72291,0 1.3086,-0.58336 1.3086,-1.3047 V 43.102 C 82.4607,21.46 64.8777,3.915 43.1877,3.915 Z M 8.4551,7.252 h 34.707 c 19.829,0 35.902,16.04 35.902,35.824 v 34.629 c 0,0.65943 -0.53443,1.1953 -1.1953,1.1953 h -34.707 c -19.829,0 -35.902,-16.04 -35.902,-35.824 V 8.4453 c 0,-0.65943 0.53443,-1.1934 1.1953,-1.1934 z"
         id="path52"
         inkscape:export-filename="/home/mo/Dokumente/Icons for Sailfish/fishtheke4_172.png"
         inkscape:export-xdpi="175.56932"
         inkscape:export-ydpi="175.56932"
         style="fill:url(#h);stroke-width:0.99439001;filter:url(#filter1053)" />
    </g>
    <g
       transform="matrix(6.062258,-6.062258,6.062258,6.062258,-253.20199,132.79592)"
       id="g84">
      <path
         style="fill:url(#i);stroke-width:1.74370003;filter:url(#a-8)"
         inkscape:connector-curvature="0"
         transform="matrix(0.90888,0,0,0.90888,3.9197,3.9115)"
         d="m 65.469,61.164 c -0.60011,0.77594 -1.2422,1.5264 -1.9531,2.2344 -0.71072,0.70781 -1.4652,1.3497 -2.2441,1.9473 0.38887,1.2019 0.69785,2.4092 0.92774,3.627 2.0667,0.59539 4.2105,0.19376 5.6602,-1.25 1.4495,-1.4436 1.8573,-3.5769 1.2598,-5.6348 -1.223,-0.22906 -2.4434,-0.53628 -3.6504,-0.92383 z m 17.213,0.05273 c -0.77535,0.26163 -1.5603,0.49763 -2.3613,0.68359 0.97716,5.1798 -0.3154,10.483 -4.0488,14.201 -3.7335,3.7182 -9.0535,5.0015 -14.254,4.0293 -0.18884,0.80679 -0.43286,1.5957 -0.70117,2.377 h 13.295 c 1.7211,-0.84145 3.3189,-1.9516 4.7266,-3.3535 1.3931,-1.3874 2.5006,-2.9611 3.3438,-4.6543 z m -3.4121,0.91797 c -1.2757,0.23976 -2.577,0.37505 -3.8906,0.42383 0.56951,3.5584 -0.36555,7.171 -2.9355,9.7305 -2.5689,2.5584 -6.1967,3.4876 -9.7695,2.9199 -0.04896,1.3084 -0.18308,2.6083 -0.42383,3.8789 4.8852,0.90395 9.8064,-0.30488 13.26,-3.7441 3.4535,-3.4394 4.6684,-8.343 3.7598,-13.209 z m -8.9883,0.15039 c 0.49136,2.2371 -0.03115,4.5691 -1.6621,6.1934 -1.6311,1.6244 -3.9724,2.1477 -6.2188,1.6582 0.19638,1.3362 0.29553,2.6733 0.29883,4 3.3234,0.57149 6.6445,-0.27326 8.9844,-2.6035 2.3408,-2.3313 3.1884,-5.641 2.6152,-8.9512 -1.3323,-0.0034 -2.6758,-0.10121 -4.0176,-0.29688 z m 12.4,14.402 c -0.7296,1.1473 -1.586,2.2288 -2.582,3.2207 -1.009,1.0049 -2.1123,1.8677 -3.2812,2.5996 h 4.5469 c 0.72699,0 1.3164,-0.5871 1.3164,-1.3125 z"
         id="path56" />
      <path
         style="fill:url(#s);stroke-width:1.55209994;filter:url(#a-8)"
         inkscape:connector-curvature="0"
         transform="matrix(1.0231,0,0,1.0189,3.3456,3.3535)"
         d="m 42.914,16.314 c -0.97312,0.6754 -1.997,1.2579 -3.0586,1.752 1.5605,6.3314 0.16066,12.953 -4.3945,17.508 -4.5541,4.5541 -11.173,5.9443 -17.504,4.3867 -0.49491,1.0648 -1.0786,2.0886 -1.7559,3.0645 7.9124,2.444 16.322,0.93429 21.984,-4.7285 5.6635,-5.6635 7.1721,-14.07 4.7285,-21.982 z m -3.9512,2.1504 c -1.0703,0.43887 -2.1742,0.78334 -3.3047,1.0469 0.86804,4.6202 -0.28116,9.3495 -3.5977,12.666 -3.3166,3.3166 -8.0425,4.461 -12.662,3.5938 -0.26288,1.1277 -0.61146,2.231 -1.0488,3.2988 5.9983,1.4239 12.178,0.08751 16.436,-4.1699 4.2583,-4.2583 5.6037,-10.436 4.1777,-16.436 z m -16.498,0.38867 c -0.53309,0.69212 -1.1029,1.3626 -1.7344,1.9941 -0.63135,0.63135 -1.3022,1.2033 -1.9941,1.7363 0.34544,1.0721 0.62,2.1501 0.82422,3.2363 1.8359,0.53107 3.7395,0.17256 5.0273,-1.1152 1.2876,-1.2876 1.6499,-3.1918 1.1191,-5.0273 -1.0864,-0.20432 -2.17,-0.47854 -3.2422,-0.82422 z m 12.26,0.86719 c -1.1332,0.21386 -2.2901,0.33345 -3.457,0.37695 0.50591,3.174 -0.32443,6.3967 -2.6074,8.6797 -2.282,2.282 -5.5039,3.1118 -8.6777,2.6055 -0.04349,1.1671 -0.16309,2.3256 -0.37695,3.459 4.3397,0.8063 8.7116,-0.27211 11.779,-3.3398 3.0678,-3.0678 4.147,-7.4409 3.3398,-11.781 z m -7.9844,0.13281 c 0.43649,1.9955 -0.02774,4.0766 -1.4766,5.5254 -1.4489,1.4489 -3.5299,1.9151 -5.5254,1.4785 0.17445,1.1918 0.26269,2.385 0.26562,3.5684 2.9523,0.50976 5.9039,-0.24374 7.9824,-2.3223 2.0794,-2.0794 2.8314,-5.0318 2.3223,-7.9844 -1.1835,-0.003 -2.3765,-0.0911 -3.5684,-0.26562 z"
         id="path58" />
      <path
         style="fill:url(#q);stroke-width:1.74370003;filter:url(#a-8)"
         inkscape:connector-curvature="0"
         transform="matrix(0.90888,0,0,0.90888,3.9197,3.9115)"
         d="m 52.787,12.83 c -0.6001,0.77594 -1.2422,1.5283 -1.9531,2.2363 -0.71072,0.70781 -1.4652,1.3497 -2.2441,1.9473 0.38886,1.2019 0.69785,2.4092 0.92773,3.627 2.0667,0.59539 4.2105,0.19376 5.6602,-1.25 1.4495,-1.4436 1.8573,-3.5789 1.2598,-5.6367 -1.223,-0.22906 -2.4434,-0.53628 -3.6504,-0.92383 z m 16.133,0.38867 c -0.42537,0.12199 -0.84867,0.24918 -1.2812,0.34961 0.97716,5.1798 -0.3154,10.481 -4.0488,14.199 -3.7335,3.7182 -9.0536,5.0015 -14.254,4.0293 -0.29593,1.2643 -0.68929,2.5021 -1.1816,3.6992 6.7523,1.5963 13.709,0.09726 18.502,-4.6758 3.9194,-3.9034 5.6434,-9.2453 5.2656,-14.74 -0.94988,-1.0053 -1.9516,-1.96 -3.002,-2.8613 z m -2.332,0.58398 c -1.2757,0.23976 -2.579,0.3731 -3.8926,0.42188 0.56951,3.5584 -0.36359,7.1729 -2.9336,9.7324 -2.5689,2.5584 -6.1967,3.4876 -9.7695,2.9199 -0.04896,1.3084 -0.18308,2.6083 -0.42383,3.8789 4.8852,0.90395 9.8064,-0.30488 13.26,-3.7441 3.4535,-3.4394 4.6684,-8.343 3.7598,-13.209 z m -8.9883,0.14844 c 0.49136,2.2371 -0.03115,4.571 -1.6621,6.1953 -1.6311,1.6244 -3.9743,2.1477 -6.2207,1.6582 0.19638,1.3362 0.29553,2.6733 0.29883,4 3.3234,0.57149 6.6465,-0.27326 8.9863,-2.6035 2.3408,-2.3313 3.1884,-5.641 2.6152,-8.9512 -1.3323,-0.0034 -2.6758,-0.10317 -4.0176,-0.29883 z m 15.453,3.3789 c 0.04806,5.3077 -1.8003,10.425 -5.6367,14.246 -5.1267,5.1057 -12.577,6.6642 -19.703,4.918 -0.55713,1.1938 -1.2141,2.3415 -1.9766,3.4355 8.9071,2.74 18.373,1.0478 24.748,-5.3008 3.423,-3.409 5.4877,-7.7061 6.2461,-12.326 -1.0957,-1.7556 -2.3273,-3.416 -3.6777,-4.9727 z"
         id="path60" />
      <path
         style="fill:url(#n);stroke-width:1.55209994;filter:url(#a-8)"
         inkscape:connector-curvature="0"
         transform="matrix(1.0231,0,0,1.0189,3.3456,3.3535)"
         d="m 61.041,34.441 c -0.97312,0.6754 -1.997,1.2579 -3.0586,1.752 1.5605,6.3314 0.16066,12.953 -4.3945,17.508 -4.5541,4.5541 -11.173,5.9443 -17.504,4.3867 -0.49491,1.0648 -1.0786,2.0886 -1.7559,3.0645 7.9124,2.444 16.322,0.93429 21.984,-4.7285 5.6635,-5.6635 7.1721,-14.07 4.7285,-21.982 z m -3.9512,2.1504 c -1.0703,0.43887 -2.1742,0.78334 -3.3047,1.0469 0.86804,4.6202 -0.28116,9.3495 -3.5977,12.666 -3.3166,3.3166 -8.0425,4.461 -12.662,3.5938 -0.26288,1.1277 -0.61146,2.231 -1.0488,3.2988 5.9983,1.4239 12.178,0.08751 16.436,-4.1699 4.2583,-4.2583 5.6037,-10.436 4.1777,-16.436 z m -16.498,0.38867 c -0.53309,0.69212 -1.1029,1.3626 -1.7344,1.9941 -0.63135,0.63135 -1.3022,1.2033 -1.9941,1.7363 0.34544,1.0721 0.62,2.1501 0.82422,3.2363 1.8359,0.53107 3.7395,0.17256 5.0273,-1.1152 1.2876,-1.2876 1.6499,-3.1918 1.1191,-5.0273 -1.0864,-0.20432 -2.17,-0.47854 -3.2422,-0.82422 z m 12.26,0.86719 c -1.1332,0.21386 -2.2901,0.33345 -3.457,0.37695 0.50591,3.174 -0.32443,6.3967 -2.6074,8.6797 -2.282,2.282 -5.5039,3.1118 -8.6777,2.6055 -0.04349,1.1671 -0.16309,2.3256 -0.37695,3.459 4.3397,0.8063 8.7116,-0.27211 11.779,-3.3398 3.0678,-3.0678 4.147,-7.4409 3.3398,-11.781 z m -7.9844,0.13281 c 0.43649,1.9955 -0.02774,4.0766 -1.4766,5.5254 -1.4489,1.4489 -3.5299,1.9151 -5.5254,1.4785 0.17445,1.1918 0.26269,2.385 0.26562,3.5684 2.9523,0.50976 5.9039,-0.24374 7.9824,-2.3223 2.0794,-2.0794 2.8314,-5.0318 2.3223,-7.9844 -1.1835,-0.003 -2.3765,-0.0911 -3.5684,-0.26562 z"
         id="path62" />
      <path
         style="fill:url(#j);stroke-width:1.74370003;filter:url(#a-8)"
         inkscape:connector-curvature="0"
         transform="matrix(0.90888,0,0,0.90888,3.9197,3.9115)"
         d="m 60.361,66.014 c -1.0955,0.7572 -2.2483,1.409 -3.4434,1.9629 1.2348,4.9897 0.81456,10.138 -1.3203,14.531 h 4.6133 c 1.848,-5.1155 1.8809,-10.913 0.15039,-16.494 z m -4.4473,2.4102 c -1.2048,0.49202 -2.4481,0.87838 -3.7207,1.1738 0.86935,4.6083 -0.06387,9.3098 -2.9082,12.91 h 5.1094 c 2.1943,-4.1986 2.687,-9.1923 1.5195,-14.084 z m -18.572,0.43555 c -0.60011,0.77594 -1.2422,1.5283 -1.9531,2.2363 -0.71072,0.70781 -1.4652,1.3478 -2.2441,1.9453 0.38887,1.2019 0.69785,2.4111 0.92774,3.6289 2.0667,0.59539 4.2085,0.19376 5.6582,-1.25 1.4495,-1.4436 1.8573,-3.5789 1.2598,-5.6367 -1.223,-0.22906 -2.4415,-0.53628 -3.6484,-0.92383 z m 13.801,0.97266 c -1.2757,0.23976 -2.579,0.3731 -3.8926,0.42188 0.56951,3.5584 -0.36359,7.1729 -2.9336,9.7324 -1.1238,1.1192 -2.4589,1.9071 -3.8945,2.4141 0.91471,0.06321 1.8348,0.10742 2.7656,0.10742 h 4.6953 c 3.0662,-3.4026 4.1227,-8.0546 3.2598,-12.676 z m -8.9883,0.14844 c 0.49137,2.2371 -0.03115,4.571 -1.6621,6.1953 -1.6311,1.6244 -3.9743,2.1457 -6.2207,1.6562 0.18265,1.2428 0.2735,2.4873 0.28906,3.7227 0.74841,0.16647 1.5038,0.31603 2.2676,0.43945 2.5273,-0.05941 4.9214,-0.9639 6.7285,-2.7637 2.3408,-2.3313 3.1884,-5.641 2.6152,-8.9512 -1.3323,-0.0034 -2.6758,-0.10317 -4.0176,-0.29883 z"
         id="path64" />
      <path
         style="fill:url(#k);stroke-width:1.74370003;filter:url(#a-8)"
         inkscape:connector-curvature="0"
         transform="matrix(0.90888,0,0,0.90888,3.9197,3.9115)"
         d="m 32.232,73.705 c -1.0955,0.7572 -2.2483,1.4109 -3.4434,1.9648 0.36,1.4547 0.57624,2.9234 0.6543,4.3828 1.3142,0.48687 2.6611,0.90494 4.0371,1.252 -0.05598,-2.5221 -0.46766,-5.0829 -1.248,-7.5996 z m -4.4492,2.4121 c -1.2048,0.49202 -2.4462,0.87643 -3.7188,1.1719 0.0202,0.1071 0.03253,0.21508 0.05078,0.32227 1.3555,0.74742 2.762,1.4129 4.209,2 -0.08922,-1.1632 -0.26329,-2.3305 -0.54102,-3.4941 z"
         id="path66" />
      <path
         style="fill:url(#m);stroke-width:1.74370003;filter:url(#a-8)"
         inkscape:connector-curvature="0"
         transform="matrix(0.90888,0,0,0.90888,3.9197,3.9115)"
         d="m 39.953,45.691 c -1.0955,0.7572 -2.2483,1.409 -3.4434,1.9629 1.7566,7.0981 0.18058,14.522 -4.9473,19.629 -3.8163,3.8007 -8.9209,5.6321 -14.221,5.6016 1.5535,1.3434 3.2113,2.5689 4.9629,3.6602 4.6201,-0.7624 8.9163,-2.8131 12.326,-6.209 6.3754,-6.3494 8.073,-15.774 5.3223,-24.645 z m -4.4473,2.4102 c -1.2048,0.49202 -2.4481,0.87838 -3.7207,1.1738 0.97716,5.1798 -0.3154,10.481 -4.0488,14.199 -3.7335,3.7182 -9.0535,5.0015 -14.254,4.0293 -0.09292,0.39699 -0.21216,0.78653 -0.32422,1.1777 0.92747,1.0829 1.9129,2.1151 2.9512,3.0918 5.4795,0.34792 10.8,-1.3689 14.693,-5.2461 4.7937,-4.774 6.3083,-11.7 4.7031,-18.426 z m -18.572,0.43555 c -0.60011,0.77594 -1.2422,1.5283 -1.9531,2.2363 -0.71072,0.70781 -1.4652,1.3478 -2.2441,1.9453 0.38887,1.2019 0.69785,2.4111 0.92773,3.6289 2.0667,0.59539 4.2105,0.19376 5.6602,-1.25 1.4495,-1.4436 1.8573,-3.5789 1.2598,-5.6367 -1.223,-0.22906 -2.4434,-0.53628 -3.6504,-0.92383 z m 13.801,0.97266 c -1.2757,0.23976 -2.579,0.3731 -3.8926,0.42188 0.56951,3.5584 -0.36359,7.1729 -2.9336,9.7324 -2.5689,2.5584 -6.1967,3.4876 -9.7695,2.9199 -0.04896,1.3084 -0.18308,2.6083 -0.42383,3.8789 4.8852,0.90395 9.8064,-0.30683 13.26,-3.7461 3.4535,-3.4394 4.6684,-8.341 3.7598,-13.207 z m -8.9883,0.14844 c 0.49136,2.2371 -0.03115,4.571 -1.6621,6.1953 -1.6311,1.6244 -3.9743,2.1457 -6.2207,1.6562 0.19638,1.3362 0.29553,2.6753 0.29883,4.002 3.3234,0.57149 6.6465,-0.27326 8.9863,-2.6035 2.3408,-2.3313 3.1884,-5.641 2.6152,-8.9512 -1.3323,-0.0034 -2.6758,-0.10317 -4.0176,-0.29883 z"
         id="path68" />
      <path
         style="fill:url(#l);stroke-width:1.74370003;filter:url(#a-8)"
         inkscape:connector-curvature="0"
         transform="matrix(0.90888,0,0,0.90888,3.9197,3.9115)"
         d="m 11.828,53.381 c -1.0955,0.7572 -2.2483,1.4109 -3.4434,1.9648 0.61485,2.4845 0.81732,5.0081 0.60547,7.459 0.9943,1.7144 2.1106,3.3482 3.3437,4.8867 1.158,-4.5491 0.98307,-9.5088 -0.50586,-14.311 z m -4.4473,2.4102 c -0.46244,0.18885 -0.93376,0.35719 -1.4082,0.51172 0.57337,1.609 1.2522,3.1669 2.0215,4.6719 0.00238,-1.7146 -0.20087,-3.4556 -0.61328,-5.1836 z"
         id="path70" />
      <path
         style="fill:url(#t);stroke-width:1.74370003;filter:url(#a-8)"
         inkscape:connector-curvature="0"
         transform="matrix(0.90888,0,0,0.90888,3.9197,3.9115)"
         d="m 19.549,25.369 c -1.0955,0.7572 -2.2463,1.409 -3.4414,1.9629 1.7566,7.0981 0.18058,14.522 -4.9473,19.629 -1.9251,1.9172 -4.184,3.3218 -6.625,4.25 0.29224,1.3937 0.6621,2.7584 1.0977,4.0938 3.1867,-1.074 6.1234,-2.8308 8.5937,-5.291 6.3754,-6.3494 8.073,-15.774 5.3223,-24.645 z m -4.4473,2.4102 c -1.2048,0.49202 -2.4481,0.87838 -3.7207,1.1738 0.97716,5.1798 -0.3154,10.481 -4.0488,14.199 -1.0632,1.0589 -2.2616,1.9104 -3.543,2.5781 0.0988,1.4949 0.28364,2.9654 0.54492,4.4102 2.235,-0.8769 4.299,-2.1773 6.0645,-3.9355 4.7937,-4.774 6.3083,-11.7 4.7031,-18.426 z m -4.7715,1.4082 c -1.2757,0.23976 -2.577,0.3731 -3.8906,0.42188 0.55427,3.4631 -0.32995,6.9706 -2.7461,9.5156 v 3.9766 c 0,0.48422 0.019754,0.96337 0.037109,1.4434 1.021,-0.58168 1.9785,-1.2925 2.8398,-2.1504 3.4535,-3.4394 4.6684,-8.341 3.7598,-13.207 z m -6.6367,0.38281 v 7.8848 c 1.6032,-2.2105 2.1523,-5.012 1.666,-7.8203 -0.5534,-0.0014 -1.1097,-0.02921 -1.666,-0.06445 z"
         id="path72" />
      <path
         style="fill:url(#u);stroke-width:1.74370003;filter:url(#a-8)"
         inkscape:connector-curvature="0"
         transform="matrix(0.90888,0,0,0.90888,3.9197,3.9115)"
         d="m 29.541,3.6934 c 0.04023,0.59771 0.06883,1.1947 0.07031,1.7891 2.8895,0.49687 5.7653,-0.098591 8.0078,-1.7891 z m 9.748,0 c -2.565,2.5107 -6.1598,3.4243 -9.7031,2.8613 -0.04896,1.3084 -0.18308,2.6083 -0.42383,3.8789 4.8852,0.90395 9.8064,-0.30488 13.26,-3.7441 0.89771,-0.89404 1.634,-1.8932 2.2305,-2.959 -0.48676,-0.017733 -0.97374,-0.037109 -1.4648,-0.037109 z m 6.5508,0.097656 c -0.68022,1.3253 -1.5575,2.56 -2.6562,3.6543 -3.7335,3.7182 -9.0536,5.0015 -14.254,4.0293 -0.29593,1.2643 -0.68929,2.5021 -1.1816,3.6992 6.7523,1.5963 13.709,0.09726 18.502,-4.6758 1.7987,-1.7914 3.1254,-3.8885 4.0078,-6.1621 -1.4474,-0.26118 -2.9203,-0.44575 -4.418,-0.54492 z m 5.4922,0.74609 c -0.9334,2.4777 -2.3631,4.7676 -4.3203,6.7168 -5.1267,5.1057 -12.579,6.6642 -19.705,4.918 -0.55713,1.1938 -1.2141,2.3415 -1.9766,3.4355 8.9071,2.74 18.373,1.0478 24.748,-5.3008 2.5008,-2.4906 4.2759,-5.4556 5.3496,-8.6738 -1.3361,-0.43433 -2.7012,-0.80392 -4.0957,-1.0957 z"
         id="path74" />
      <path
         style="fill:url(#o);stroke-width:1.74370003;filter:url(#a-8)"
         inkscape:connector-curvature="0"
         transform="matrix(0.90888,0,0,0.90888,3.9197,3.9115)"
         d="m 73.195,33.152 c -0.6001,0.77594 -1.2422,1.5283 -1.9531,2.2363 -0.71072,0.70781 -1.4652,1.3497 -2.2441,1.9473 0.38886,1.2019 0.69785,2.4092 0.92773,3.627 2.0667,0.59539 4.2085,0.19376 5.6582,-1.25 1.4495,-1.4436 1.8573,-3.5789 1.2598,-5.6367 -1.223,-0.22906 -2.4415,-0.53628 -3.6484,-0.92383 z m 4.8125,1.1211 c 0.49137,2.2371 -0.03115,4.571 -1.6621,6.1953 -1.6311,1.6244 -3.9743,2.1477 -6.2207,1.6582 0.19638,1.3362 0.29553,2.6733 0.29883,4 3.3234,0.57149 6.6465,-0.27326 8.9863,-2.6035 1.7956,-1.7883 2.7047,-4.154 2.7754,-6.6523 -0.12393,-0.77842 -0.27445,-1.548 -0.44336,-2.3105 -1.2396,-0.01565 -2.4874,-0.10526 -3.7344,-0.28711 z m 4.5742,6.1641 c -0.51012,1.416 -1.2975,2.7317 -2.4121,3.8418 -2.5689,2.5584 -6.1967,3.4876 -9.7695,2.9199 -0.04896,1.3084 -0.18308,2.6083 -0.42383,3.8789 4.6302,0.85675 9.2906,-0.18924 12.705,-3.2285 v -4.748 c 0,-0.89599 -0.04062,-1.783 -0.09961,-2.6641 z m 0.09961,8.8066 c -3.6119,2.8191 -8.3217,3.7383 -12.939,2.875 -0.29593,1.2643 -0.68734,2.5021 -1.1797,3.6992 4.9019,1.1588 9.908,0.67768 14.119,-1.4941 z m 0,6.2773 c -4.4047,2.1121 -9.5605,2.5201 -14.561,1.2949 -0.55713,1.1938 -1.2141,2.3415 -1.9766,3.4355 5.5936,1.7207 11.407,1.6903 16.537,-0.14062 z"
         id="path76" />
      <path
         style="fill:url(#p);stroke-width:1.74370003;filter:url(#a-8)"
         inkscape:connector-curvature="0"
         transform="matrix(0.90888,0,0,0.90888,3.9197,3.9115)"
         d="m 77.488,24.078 c -0.29593,1.2643 -0.68734,2.5021 -1.1797,3.6992 1.1613,0.27454 2.327,0.44674 3.4883,0.53711 -0.58416,-1.4385 -1.2447,-2.8374 -1.9883,-4.1855 -0.10672,-0.01802 -0.21368,-0.03084 -0.32031,-0.05078 z m -1.6211,4.6973 c -0.55713,1.1938 -1.2161,2.3415 -1.9785,3.4355 2.5157,0.77387 5.0741,1.1796 7.5957,1.2383 -0.34666,-1.3737 -0.76499,-2.7191 -1.252,-4.0312 -1.454,-0.07853 -2.9153,-0.28731 -4.3652,-0.64258 z"
         id="path78" />
      <path
         inkscape:connector-curvature="0"
         transform="matrix(0.90888,0,0,0.90888,3.9197,3.9115)"
         d="m 5.0098,3.6934 c -0.72699,0 -1.3164,0.5871 -1.3164,1.3125 V 8.1934 C 4.8083,8.0327 5.8483,7.57224 6.6622,6.7618 7.50374,5.92371 7.979,4.8474 8.1251,3.6934 Z m 4.1875,0 C 9.04411,5.1174 8.47544,6.4664 7.4219,7.5157 6.3955,8.5379 5.0822,9.1042 3.6934,9.2755 v 4.0469 c 2.5499,-0.04526 4.9712,-0.93766 6.793,-2.752 1.849,-1.8414 2.7452,-4.2964 2.7656,-6.877 z m 5.1211,0 c -0.02212,2.8401 -1.0087,5.5776 -3.0723,7.6328 -2.036,2.0277 -4.7412,3.0083 -7.5527,3.0547 v 3.9941 c 3.9721,0.11184 7.7904,-1.177 10.619,-3.9941 2.8552,-2.8435 4.1524,-6.6911 4.0117,-10.687 z m 5.0801,0 c 0.13759,4.2529 -1.2528,8.3865 -4.3242,11.445 -3.0453,3.0328 -7.1504,4.4132 -11.381,4.3027 v 3.998 c 5.3917,0.28124 10.613,-1.4295 14.447,-5.248 3.8614,-3.8456 5.5861,-9.0892 5.2754,-14.498 z m 5.0996,0 c 0.30521,5.6635 -1.5191,11.192 -5.5977,15.254 -4.0526,4.036 -9.558,5.8439 -15.207,5.5664 v 3.9766 c 6.808,0.45143 13.434,-1.671 18.275,-6.4922 4.867,-4.847 6.9929,-11.488 6.5098,-18.305 z"
         id="path80"
         style="fill:url(#linearGradient1194);fill-opacity:1;stroke-width:1.74370003;filter:url(#a-8)"
         inkscape:export-xdpi="609.07422"
         inkscape:export-ydpi="609.07422" />
      <path
         style="fill:url(#r);stroke-width:1.74370003;filter:url(#a-8)"
         inkscape:connector-curvature="0"
         transform="matrix(0.90888,0,0,0.90888,3.9197,3.9115)"
         d="m 56.447,5.9766 c -0.16365,0.501 -0.34446,0.99499 -0.54492,1.4824 1.788,0.42269 3.5892,0.62402 5.3613,0.60742 -1.5494,-0.79754 -3.156,-1.4993 -4.8164,-2.0898 z m -0.98633,2.4805 c -0.55713,1.1938 -1.2141,2.3415 -1.9766,3.4355 4.8429,1.4898 9.8484,1.661 14.434,0.49023 -1.5319,-1.2295 -3.158,-2.3443 -4.8652,-3.3379 -2.4928,0.22694 -5.0611,0.032207 -7.5918,-0.58789 z"
         id="path82" />
    </g>
  </g>
  <g
     transform="translate(0,184)"
     style="display:inline;opacity:0"
     inkscape:label="Ebene 2"
     id="layer3"
     inkscape:groupmode="layer">
    <rect
       style="display:inline;opacity:1;fill:#1a1a1a;fill-opacity:1;stroke:none;stroke-width:0.8991245;stroke-miterlimit:4;stroke-dasharray:none;stroke-opacity:1"
       id="rect1819"
       width="534.13623"
       height="267.29395"
       x="2.48281"
       y="-185.30592"
       inkscape:export-xdpi="97.053894"
       inkscape:export-ydpi="97.053894" />
  </g>
  <g
     style="display:inline"
     inkscape:label="Ebene 3"
     id="layer4"
     inkscape:groupmode="layer">
    <text
       xml:space="preserve"
       style="font-style:normal;font-variant:normal;font-weight:normal;font-stretch:normal;font-size:50.75048828px;line-height:1.25;font-family:'Source Han Sans CN Light';-inkscape-font-specification:'Source Han Sans CN Light, ';letter-spacing:0px;word-spacing:0px;fill:url(#linearGradient1687);fill-opacity:1;stroke:#000000;stroke-width:1.26876199;stroke-opacity:1;filter:url(#filter1671)"
       x="41.793964"
       y="138.85257"
       id="text1074"
       transform="matrix(1.1474251,0,0,1.1474251,-17.423194,2.5030996)"><tspan
         sodipodi:role="line"
         id="tspan1072"
         x="41.793964"
         y="138.85257"
         style="font-style:normal;font-variant:normal;font-weight:normal;font-stretch:normal;font-family:Blockbrokers;-inkscape-font-specification:Blockbrokers;letter-spacing:3.64273643px;fill:url(#linearGradient1687);fill-opacity:1;stroke:#000000;stroke-width:1.26876199;stroke-opacity:1">fis<tspan
   style="letter-spacing:0.82089847px;fill:url(#linearGradient1687);fill-opacity:1;stroke:#000000;stroke-width:1.26876199;stroke-opacity:1"
   id="tspan1325">h</tspan><tspan
   style="letter-spacing:1.20056379px;fill:url(#linearGradient1687);fill-opacity:1;stroke:#000000;stroke-width:1.26876199;stroke-opacity:1"
   id="tspan1447">t</tspan>heke</tspan></text>
  </g>
  <g
     inkscape:groupmode="layer"
     id="layer6"
     inkscape:label="Ebene 5"
     style="display:inline">
    <g
       style="font-style:normal;font-variant:normal;font-weight:normal;font-stretch:normal;font-size:124.86838531px;line-height:152.99999714%;font-family:Sarai;-inkscape-font-specification:Sarai;letter-spacing:0px;word-spacing:-86.37348938px;fill:#ffffff;fill-opacity:1;stroke:none;stroke-width:1px;stroke-linecap:butt;stroke-linejoin:miter;stroke-opacity:0.60511361"
       id="text8678"
       transform="matrix(0.97286454,0,0,0.97286454,2.103764,2.9012828)" />
    <rect
       style="opacity:1;fill:url(#linearGradient1721);fill-opacity:1;stroke:none;stroke-width:0.88341898;stroke-miterlimit:4;stroke-dasharray:none;stroke-opacity:1"
       id="rect1709"
       width="535.17688"
       height="31.881329"
       x="2.4827974"
       y="194.3494" />
    <flowRoot
       xml:space="preserve"
       id="flowRoot5460"
       style="font-style:normal;font-variant:normal;font-weight:normal;font-stretch:normal;line-height:0.01%;font-family:'Source Han Sans CN Light';-inkscape-font-specification:'Source Han Sans CN Light, ';letter-spacing:0px;word-spacing:0px;fill:#4d4d4d;fill-opacity:1;stroke:none;stroke-width:0.89999998;stroke-linecap:butt;stroke-linejoin:miter;stroke-miterlimit:4;stroke-dasharray:none;stroke-opacity:1"
       transform="translate(64.573708,3.8321018)"><flowRegion
         id="flowRegion5462"
         style="font-style:normal;font-variant:normal;font-weight:normal;font-stretch:normal;font-family:'Source Han Sans CN Light';-inkscape-font-specification:'Source Han Sans CN Light, ';fill:#4d4d4d;fill-opacity:1;stroke:none;stroke-width:0.89999998;stroke-miterlimit:4;stroke-dasharray:none;stroke-opacity:1"><rect
           id="rect5464"
           width="555.06366"
           height="104.6715"
           x="17.821783"
           y="193.76237"
           style="font-style:normal;font-variant:normal;font-weight:normal;font-stretch:normal;font-family:'Source Han Sans CN Light';-inkscape-font-specification:'Source Han Sans CN Light, ';fill:#4d4d4d;fill-opacity:1;stroke:none;stroke-width:0.89999998;stroke-miterlimit:4;stroke-dasharray:none;stroke-opacity:1" /></flowRegion><flowPara
         style="font-style:normal;font-variant:normal;font-weight:normal;font-stretch:normal;font-size:25px;line-height:100%;font-family:'Source Han Sans CN Light';-inkscape-font-specification:'Source Han Sans CN Light, ';letter-spacing:0px;fill:#4d4d4d;fill-opacity:1;stroke:none;stroke-width:0.89999998;stroke-miterlimit:4;stroke-dasharray:none;stroke-opacity:1"
         id="flowPara5470">mediathek browser for Sailfish OS</flowPara></flowRoot>  </g>
  <g
     transform="translate(0,184)"
     style="display:none"
     inkscape:label="Ebene 1"
     id="layer1"
     inkscape:groupmode="layer" />
</svg>
