<?xml version="1.0" encoding="UTF-8"?>
<svg width="220.24" height="203.64" version="1.1" viewBox="0 0 58.271992 53.878883" xmlns="http://www.w3.org/2000/svg" xmlns:cc="http://creativecommons.org/ns#" xmlns:dc="http://purl.org/dc/elements/1.1/" xmlns:rdf="http://www.w3.org/1999/02/22-rdf-syntax-ns#" xmlns:xlink="http://www.w3.org/1999/xlink">
<defs>
<linearGradient id="a" x1="31.544" x2="64.952" y1="48.361" y2="48.361" gradientTransform="matrix(1.6603 -1.6603 1.6535 1.6535 -128.52 27.064)" gradientUnits="userSpaceOnUse">
<stop stop-color="#f60" offset="0"/>
<stop stop-color="#fc0" offset="1"/>
</linearGradient>
</defs>
<metadata>
<rdf:RDF>
<cc:Work rdf:about="">
<dc:format>image/svg+xml</dc:format>
<dc:type rdf:resource="http://purl.org/dc/dcmitype/StillImage"/>
<dc:title/>
</cc:Work>
</rdf:RDF>
</metadata>
<path d="m23.016 0l-5.3e-4 5.2917e-4c9.0804 6.1981 14.992 15.925 14.969 26.916-0.022595 10.989-5.9748 20.726-15.076 26.963h12.707c7.0877-7.2925 11.373-16.702 11.395-26.985 0.021113-10.258-4.1939-19.634-11.216-26.893zm15.834 0c6.5235 7.4145 10.418 16.738 10.397 26.887-0.02093 10.184-3.9887 19.542-10.587 26.992h10.857c5.5363-7.8696 8.7359-17.12 8.7555-27.013 0.020267-9.8484-3.1116-19.044-8.5669-26.866zm-17.039 1.8955v5.291e-4c-1.5278 2.2349-3.2512 4.3532-5.1165 6.3624 6.088 4.4082 10.038 11.115 10.023 18.681-0.01556 7.562-3.9931 14.282-10.1 18.715 1.8576 2.002 3.5753 4.1168 5.0943 6.3459 8.5383-5.8718 14.013-14.915 14.033-25.08 0.020902-10.166-5.4177-19.188-13.934-25.024zm-6.6735 7.9902c-1.9699 1.96-4.096 3.7953-6.3634 5.4855 4.0243 2.5748 6.6941 6.7863 6.6843 11.587-0.0099 4.8013-2.6937 9.0269-6.7288 11.618 2.2602 1.681 4.3791 3.5078 6.3407 5.4596 5.7446-4.0587 9.3994-10.205 9.4134-17.092 0.014155-6.8905-3.6191-13.021-9.3462-17.058zm-8.3705 6.9107c-2.1415 1.4658-4.3939 2.8114-6.7453 4.0199 0.25932 2.0295 0.42238 4.0841 0.41806 6.1769-0.0042862 2.0921-0.17282 4.1517-0.44028 6.1815 2.3462 1.1992 4.5851 2.5257 6.72 3.9827 3.9261-2.17 6.4932-5.9237 6.5019-10.191 0.0088-4.2667-2.5378-8.0165-6.4539-10.17z" fill="url(#a)" stroke-width="3.6369"/>
</svg>

