<?xml version="1.0" encoding="UTF-8" standalone="no"?>
<!-- Created with Inkscape (http://www.inkscape.org/) -->

<svg
   xmlns:osb="http://www.openswatchbook.org/uri/2009/osb"
   xmlns:dc="http://purl.org/dc/elements/1.1/"
   xmlns:cc="http://creativecommons.org/ns#"
   xmlns:rdf="http://www.w3.org/1999/02/22-rdf-syntax-ns#"
   xmlns:svg="http://www.w3.org/2000/svg"
   xmlns="http://www.w3.org/2000/svg"
   xmlns:xlink="http://www.w3.org/1999/xlink"
   xmlns:sodipodi="http://sodipodi.sourceforge.net/DTD/sodipodi-0.dtd"
   xmlns:inkscape="http://www.inkscape.org/namespaces/inkscape"
   width="86"
   height="86"
   id="svg2"
   version="1.1"
   inkscape:version="0.92.2 2405546, 2018-03-11"
   sodipodi:docname="fishtheke.svg"
   inkscape:export-filename="/home/mo/Dokumente/Icon für HipsterFish/fishbook86"
   inkscape:export-xdpi="90"
   inkscape:export-ydpi="90"
   enable-background="new">
  <defs
     id="defs4">
    <linearGradient
       id="linearGradient3789-6">
      <stop
         id="stop2678"
         offset="0"
         style="stop-color:#187dcd;stop-opacity:1" />
      <stop
         id="stop2680"
         offset="1"
         style="stop-color:#00c6de;stop-opacity:1" />
    </linearGradient>
    <linearGradient
       id="linearGradient4659"
       osb:paint="gradient">
      <stop
         id="stop4661"
         offset="0"
         style="stop-color:#ebf1f1;stop-opacity:1" />
      <stop
         id="stop4663"
         offset="1"
         style="stop-color:#38ecec;stop-opacity:1" />
    </linearGradient>
    <linearGradient
       id="linearGradient5860">
      <stop
         id="stop5862"
         offset="0"
         style="stop-color:#00f68f;stop-opacity:0.49402392" />
      <stop
         id="stop5864"
         offset="1"
         style="stop-color:#005f03;stop-opacity:0.23904383" />
    </linearGradient>
    <linearGradient
       id="linearGradient3789-6-2">
      <stop
         style="stop-color:#187dcd;stop-opacity:1"
         offset="0"
         id="stop3791-0" />
      <stop
         style="stop-color:#00c6de;stop-opacity:1"
         offset="1"
         id="stop3793-4" />
    </linearGradient>
    <clipPath
       id="clipPath3374"
       clipPathUnits="userSpaceOnUse">
      <path
         inkscape:connector-curvature="0"
         id="path3376"
         d="m 207.477,208.121 4707.61,0 0,4700.45 -4707.61,0 0,-4700.45 z" />
    </clipPath>
    <filter
       inkscape:menu-tooltip="In and out glow with a possible offset and colorizable flood"
       inkscape:menu="Shadows and Glows"
       inkscape:label="Cutout Glow"
       style="color-interpolation-filters:sRGB;"
       id="filter4579">
      <feOffset
         dy="3"
         dx="3"
         id="feOffset4581" />
      <feGaussianBlur
         stdDeviation="3"
         result="blur"
         id="feGaussianBlur4583" />
      <feFlood
         flood-color="rgb(0,0,0)"
         flood-opacity="1"
         result="flood"
         id="feFlood4585" />
      <feComposite
         in="flood"
         in2="SourceGraphic"
         operator="in"
         result="composite"
         id="feComposite4587" />
      <feBlend
         in="blur"
         in2="composite"
         mode="normal"
         id="feBlend4589" />
    </filter>
    <linearGradient
       inkscape:collect="always"
       xlink:href="#linearGradient3789-6-2"
       id="linearGradient4635"
       x1="1.723"
       y1="4.3000002"
       x2="85.317215"
       y2="89.010643"
       gradientUnits="userSpaceOnUse" />
    <linearGradient
       inkscape:collect="always"
       xlink:href="#linearGradient4659"
       id="linearGradient2557"
       gradientUnits="userSpaceOnUse"
       gradientTransform="matrix(0.92492533,0,0,0.92289739,3.4158296,3.7248486)"
       x1="93.789162"
       y1="97.692795"
       x2="-6.9715867"
       y2="-3.254293" />
    <linearGradient
       inkscape:collect="always"
       xlink:href="#linearGradient3789-6-2"
       id="linearGradient2573"
       x1="8.546875"
       y1="7.34375"
       x2="78.413681"
       y2="78.314003"
       gradientUnits="userSpaceOnUse" />
    <filter
       inkscape:collect="always"
       style="color-interpolation-filters:sRGB"
       id="filter2674">
      <feBlend
         inkscape:collect="always"
         mode="saturation"
         in2="BackgroundImage"
         id="feBlend2676" />
    </filter>
  </defs>
  <sodipodi:namedview
     id="base"
     pagecolor="#ffffff"
     bordercolor="#666666"
     borderopacity="1.0"
     inkscape:pageopacity="0.0"
     inkscape:pageshadow="2"
     inkscape:zoom="11.005986"
     inkscape:cx="47.592422"
     inkscape:cy="32.28005"
     inkscape:document-units="px"
     inkscape:current-layer="layer2"
     showgrid="false"
     inkscape:window-width="2880"
     inkscape:window-height="1506"
     inkscape:window-x="0"
     inkscape:window-y="0"
     inkscape:window-maximized="1"
     inkscape:snap-bbox="true"
     inkscape:snap-global="true"
     showguides="true"
     inkscape:guide-bbox="true">
    <inkscape:grid
       type="xygrid"
       id="grid2985"
       empspacing="5"
       visible="true"
       enabled="true"
       snapvisiblegridlinesonly="true" />
  </sodipodi:namedview>
  <metadata
     id="metadata7">
    <rdf:RDF>
      <cc:Work
         rdf:about="">
        <dc:format>image/svg+xml</dc:format>
        <dc:type
           rdf:resource="http://purl.org/dc/dcmitype/StillImage" />
        <dc:title></dc:title>
      </cc:Work>
    </rdf:RDF>
  </metadata>
  <g
     inkscape:groupmode="layer"
     id="layer2"
     inkscape:label="Ebene"
     style="display:inline;filter:url(#filter2674)"
     transform="translate(0,-4)">
    <path
       d="M 1.723,4.3 H 43 c 23.583,0 42.7,19.118 42.7,42.7 v 41.277 c 0,0.786 -0.637,1.423 -1.423,1.423 H 43 C 19.417,89.7 0.3,70.582 0.3,47 V 5.723 C 0.3,4.937 0.937,4.3 1.723,4.3 z"
       id="path5184"
       style="fill:url(#linearGradient4635);fill-opacity:1;opacity:1"
       inkscape:connector-curvature="0" />
    <path
       inkscape:connector-curvature="0"
       style="opacity:1;fill:url(#linearGradient2557);fill-opacity:1"
       id="path4653"
       d="m 5.009476,7.6933073 38.178143,0 c 21.812514,0 39.494311,17.6439527 39.494311,39.4077177 l 0,38.094435 c 0,0.725398 -0.589178,1.313284 -1.316169,1.313284 l -38.178142,0 c -21.812514,0 -39.4943117,-17.643953 -39.4943117,-39.407719 l 0,-38.0944348 c 0,-0.7253973 0.5891774,-1.3132829 1.3161687,-1.3132829 z" />
    <path
       style="fill:url(#linearGradient2573);fill-opacity:1;stroke-width:1.55211473"
       d="M 8.546875 7.34375 C 7.8872282 7.34375 7.3515625 7.8769552 7.3515625 8.5351562 L 7.3515625 11.683594 C 8.2704827 11.276995 9.1215255 10.714412 9.859375 9.9765625 C 10.631311 9.2046258 11.219522 8.3113856 11.628906 7.34375 L 8.546875 7.34375 z M 12.638672 7.34375 C 12.183747 8.5620071 11.496677 9.6927742 10.537109 10.652344 C 9.6104845 11.578968 8.5223175 12.253102 7.3515625 12.708984 L 7.3515625 16.603516 C 9.560178 16.091654 11.604698 15.035927 13.261719 13.378906 C 14.950017 11.690609 16.013793 9.6001678 16.513672 7.34375 L 12.638672 7.34375 z M 17.509766 7.34375 C 16.99447 9.8478631 15.813748 12.174534 13.9375 14.050781 C 12.092276 15.896005 9.809749 17.067303 7.3515625 17.595703 L 7.3515625 21.3125 C 10.843647 20.829013 14.100114 19.333481 16.660156 16.773438 C 19.250292 14.183301 20.754525 10.881638 21.220703 7.34375 L 17.509766 7.34375 z M 22.1875 7.34375 C 21.711765 11.123197 20.111873 14.669377 17.333984 17.447266 C 14.586012 20.195239 11.085322 21.783175 7.3515625 22.275391 L 7.3515625 25.9375 C 12.118528 25.531109 16.602826 23.629597 20.060547 20.171875 C 23.547922 16.684499 25.453898 12.155958 25.837891 7.34375 L 22.1875 7.34375 z M 26.777344 7.34375 C 26.714186 8.1883107 26.622451 9.0282947 26.466797 9.8535156 C 30.387651 10.582938 34.331139 9.7670875 37.318359 7.34375 L 26.777344 7.34375 z M 38.761719 7.34375 C 35.454883 10.53856 30.807088 11.637869 26.259766 10.783203 C 25.996918 11.911052 25.652211 13.01606 25.214844 14.083984 C 31.214003 15.508402 37.388733 14.169862 41.646484 9.9121094 C 42.436496 9.1220974 43.126436 8.2660826 43.716797 7.3574219 C 43.539851 7.3548538 43.365058 7.34375 43.1875 7.34375 L 38.761719 7.34375 z M 44.8125 7.3847656 C 44.123509 8.5293435 43.300066 9.6081372 42.322266 10.585938 C 37.767966 15.140235 31.151905 16.53076 24.820312 14.972656 C 24.325377 16.037601 23.7418 17.063085 23.064453 18.039062 C 30.975092 20.482868 39.383627 18.971843 45.046875 13.308594 C 46.679108 11.67636 47.953235 9.8111808 48.900391 7.8007812 C 47.560933 7.5865839 46.197203 7.446486 44.8125 7.3847656 z M 49.828125 8.0917969 C 49.333033 9.1566589 48.749728 10.180345 48.072266 11.15625 C 52.192144 12.428955 56.442201 12.620066 60.373047 11.720703 C 57.904425 10.371844 55.258778 9.3069245 52.480469 8.5644531 C 51.59481 8.4624024 50.70901 8.3086094 49.828125 8.0917969 z M 47.472656 11.972656 C 46.939711 12.664521 46.369572 13.333553 45.738281 13.964844 C 45.10686 14.596265 44.436177 15.168139 43.744141 15.701172 C 44.089651 16.773656 44.364182 17.856654 44.568359 18.943359 C 46.403006 19.473134 48.310359 19.111517 49.597656 17.824219 C 50.884791 16.537085 51.244643 14.631637 50.714844 12.796875 C 49.628313 12.592639 48.545026 12.318257 47.472656 11.972656 z M 61.558594 12.400391 C 61.254718 12.484615 60.954068 12.578649 60.646484 12.650391 C 61.512986 17.271432 60.36664 21.998595 57.050781 25.314453 C 53.734654 28.630581 49.006494 29.777482 44.386719 28.910156 C 44.123793 30.037899 43.777244 31.141142 43.339844 32.208984 C 49.339213 33.633682 55.517369 32.295121 59.775391 28.037109 C 63.400585 24.411915 64.905053 19.395612 64.396484 14.283203 C 63.482422 13.612297 62.535915 12.983907 61.558594 12.400391 z M 59.712891 12.859375 C 58.579234 13.07343 57.425188 13.192761 56.257812 13.236328 C 56.764296 16.41131 55.932991 19.633417 53.650391 21.916016 C 51.367465 24.198942 48.145465 25.029349 44.970703 24.523438 C 44.927123 25.690334 44.807622 26.847232 44.59375 27.980469 C 48.933409 28.786743 53.307871 27.707753 56.375 24.640625 C 59.441895 21.573731 60.518338 17.200417 59.712891 12.859375 z M 51.728516 12.994141 C 52.16417 14.988982 51.70056 17.06897 50.251953 18.517578 C 48.803205 19.966326 46.72159 20.431818 44.726562 19.996094 C 44.900872 21.187813 44.989361 22.379172 44.992188 23.5625 C 47.94554 24.071696 50.895035 23.321763 52.974609 21.242188 C 55.053952 19.162845 55.804746 16.213375 55.294922 13.259766 C 54.111593 13.256766 52.920271 13.168546 51.728516 12.994141 z M 65.421875 15.070312 C 65.701526 20.134153 64.081139 25.080971 60.449219 28.712891 C 55.894549 33.267561 49.278984 34.65798 42.947266 33.099609 C 42.452289 34.164493 41.866837 35.188146 41.189453 36.164062 C 49.101069 38.609032 57.510263 37.099112 63.173828 31.435547 C 66.738556 27.870819 68.653361 23.218724 68.976562 18.287109 C 67.865297 17.137481 66.677912 16.063606 65.421875 15.070312 z M 42.914062 16.314453 C 41.941068 16.98982 40.918873 17.570349 39.857422 18.064453 C 41.417971 24.395812 40.016363 31.018792 35.460938 35.574219 C 30.906382 40.128772 24.28797 41.518922 17.957031 39.960938 C 17.461974 41.025601 16.878552 42.051563 16.201172 43.027344 C 24.113616 45.471743 32.522179 43.960242 38.185547 38.296875 C 43.849167 32.633255 45.357184 24.226638 42.914062 16.314453 z M 38.964844 18.462891 C 37.894872 18.901722 36.788358 19.248124 35.658203 19.511719 C 36.525347 24.131002 35.379406 28.858877 32.0625 32.175781 C 28.746 35.492282 24.017966 36.638594 19.398438 35.771484 C 19.135358 36.899358 18.789197 38.004284 18.351562 39.072266 C 24.350105 40.496556 30.529239 39.158253 34.787109 34.900391 C 39.045616 30.641884 40.390912 24.462167 38.964844 18.462891 z M 22.466797 18.855469 C 21.933613 19.54777 21.362131 20.2199 20.730469 20.851562 C 20.099117 21.482913 19.430258 22.052984 18.738281 22.585938 C 19.083594 23.657736 19.358368 24.736353 19.5625 25.822266 C 21.397228 26.352127 23.300301 25.994622 24.587891 24.707031 C 25.876037 23.418887 26.23831 21.51351 25.707031 19.677734 C 24.620947 19.473568 23.538642 19.200922 22.466797 18.855469 z M 69.865234 19.232422 C 69.801947 19.858938 69.719518 20.480862 69.603516 21.095703 C 70.268988 21.219448 70.934013 21.282689 71.595703 21.316406 C 71.043584 20.600637 70.468993 19.903826 69.865234 19.232422 z M 34.724609 19.722656 C 33.59099 19.936727 32.434885 20.054068 31.267578 20.097656 C 31.774771 23.27298 30.944814 26.496593 28.662109 28.779297 C 26.380053 31.061353 23.156567 31.893366 19.982422 31.386719 C 19.938782 32.553409 19.819409 33.708795 19.605469 34.841797 C 23.944954 35.647919 28.317137 34.569583 31.384766 31.501953 C 34.452824 28.433894 35.53078 24.061934 34.724609 19.722656 z M 26.742188 19.853516 C 27.178842 21.849286 26.712346 23.930239 25.263672 25.378906 C 23.815039 26.827539 21.732922 27.293016 19.738281 26.857422 C 19.912715 28.049501 20.001114 29.242138 20.003906 30.425781 C 22.956208 30.935651 25.90772 30.182123 27.986328 28.103516 C 30.065844 26.024 30.817253 23.075072 30.306641 20.121094 C 29.123543 20.118194 27.93365 20.027841 26.742188 19.853516 z M 69.396484 22.027344 C 69.133647 23.154946 68.786859 24.256506 68.349609 25.324219 C 70.424354 25.816809 72.51995 25.975592 74.550781 25.800781 C 73.875863 24.58524 73.127779 23.416517 72.320312 22.292969 C 71.350377 22.292673 70.372154 22.210648 69.396484 22.027344 z M 17.929688 23.175781 C 16.956632 23.851138 15.932663 24.4337 14.871094 24.927734 C 16.430736 31.259255 15.029027 37.879177 10.472656 42.435547 C 9.5300098 43.378193 8.4949781 44.177937 7.3964844 44.851562 C 7.4634927 46.238369 7.6149832 47.602398 7.8359375 48.943359 C 9.7898595 48.003252 11.605167 46.750301 13.197266 45.158203 C 18.861228 39.494242 20.373294 31.088293 17.929688 23.175781 z M 13.976562 25.324219 C 12.906325 25.763016 11.800376 26.111503 10.669922 26.375 C 11.512539 30.861577 10.451335 35.444954 7.3515625 38.744141 L 7.3515625 43.101562 C 7.3515625 43.316433 7.3634044 43.528218 7.3671875 43.742188 C 8.2287647 43.170921 9.0456939 42.514859 9.7988281 41.761719 C 14.058487 37.502059 15.4019 31.323786 13.976562 25.324219 z M 67.955078 26.216797 C 67.460184 27.281626 66.876483 28.307334 66.199219 29.283203 C 69.665382 30.353777 73.223215 30.655882 76.605469 30.189453 C 76.143112 28.998977 75.619581 27.839669 75.037109 26.714844 C 72.717548 26.96608 70.31689 26.797944 67.955078 26.216797 z M 9.7382812 26.582031 C 8.9530046 26.730193 8.1546278 26.820154 7.3515625 26.884766 L 7.3515625 37.283203 C 9.6803971 34.313872 10.454525 30.435115 9.7382812 26.582031 z M 65.599609 30.099609 C 65.066493 30.791818 64.496792 31.460239 63.865234 32.091797 C 63.233733 32.723298 62.563223 33.295043 61.871094 33.828125 C 62.21649 34.900166 62.491148 35.984112 62.695312 37.070312 C 64.529692 37.599731 66.437556 37.238226 67.724609 35.951172 C 69.011905 34.663874 69.369705 32.756603 68.839844 30.921875 C 67.753721 30.717675 66.671549 30.445014 65.599609 30.099609 z M 76.955078 31.117188 C 76.10611 31.240515 75.250907 31.330999 74.384766 31.363281 C 74.89069 34.537657 74.060235 37.760078 71.777344 40.042969 C 69.494513 42.3258 66.272231 43.156165 63.097656 42.650391 C 63.054126 43.817116 62.932526 44.972418 62.71875 46.105469 C 67.05936 46.912674 71.433 45.832625 74.5 42.765625 C 76.664836 40.60079 77.818872 37.782216 78.039062 34.787109 C 77.740649 33.537144 77.381185 32.312415 76.955078 31.117188 z M 69.853516 31.119141 C 70.289357 33.114076 69.827751 35.195688 68.378906 36.644531 C 66.930214 38.09322 64.848229 38.55848 62.853516 38.123047 C 63.027928 39.314919 63.116255 40.506018 63.119141 41.689453 C 66.072377 42.198486 69.022233 41.448473 71.101562 39.369141 C 73.18108 37.289625 73.931222 34.339872 73.421875 31.386719 C 72.238383 31.383719 71.045433 31.293625 69.853516 31.119141 z M 61.041016 34.441406 C 60.067891 35.11681 59.044049 35.699268 57.982422 36.193359 C 59.542876 42.524715 58.143084 49.145981 53.587891 53.701172 C 49.033756 58.255308 42.414634 59.645447 36.083984 58.087891 C 35.589071 59.152696 35.005403 60.176485 34.328125 61.152344 C 42.24051 63.596359 50.649693 62.086636 56.3125 56.423828 C 61.975971 50.760356 63.484557 42.354104 61.041016 34.441406 z M 57.089844 36.591797 C 56.019581 37.030664 54.915625 37.375141 53.785156 37.638672 C 54.653195 42.258921 53.503999 46.988186 50.1875 50.304688 C 46.870919 53.621266 42.144999 54.765649 37.525391 53.898438 C 37.262508 55.026159 36.913929 56.129435 36.476562 57.197266 C 42.474815 58.621125 48.65467 57.284779 52.912109 53.027344 C 57.170432 48.769022 58.515795 42.591005 57.089844 36.591797 z M 40.591797 36.980469 C 40.058708 37.672587 39.488934 38.343094 38.857422 38.974609 C 38.226071 39.605958 37.555226 40.177953 36.863281 40.710938 C 37.20872 41.783003 37.483286 42.861039 37.6875 43.947266 C 39.523391 44.478338 41.427048 44.11983 42.714844 42.832031 C 44.00248 41.544396 44.364775 39.640228 43.833984 37.804688 C 42.747538 37.60037 41.66399 37.326152 40.591797 36.980469 z M 78.576172 37.460938 C 77.993675 39.686708 76.870234 41.748906 75.177734 43.441406 C 71.861979 46.757161 67.134214 47.905157 62.513672 47.037109 C 62.250755 48.165052 61.904253 49.267945 61.466797 50.335938 C 67.465326 51.759749 73.64257 50.419918 77.900391 46.162109 C 78.303622 45.758878 78.672367 45.334272 79.023438 44.898438 L 79.023438 43.101562 C 79.023438 41.181796 78.868127 39.298773 78.576172 37.460938 z M 52.851562 37.847656 C 51.718313 38.061516 50.56143 38.181103 49.394531 38.224609 C 49.900443 41.398601 49.070105 44.621303 46.787109 46.904297 C 44.505068 49.18634 41.283192 50.016135 38.109375 49.509766 C 38.065885 50.676818 37.946283 51.835388 37.732422 52.96875 C 42.072105 53.775047 46.443986 52.69664 49.511719 49.628906 C 52.579545 46.561081 53.658766 42.187989 52.851562 37.847656 z M 44.867188 37.980469 C 45.30368 39.975938 44.839449 42.05703 43.390625 43.505859 C 41.941714 44.954771 39.860749 45.42096 37.865234 44.984375 C 38.039681 46.176189 38.127927 47.36935 38.130859 48.552734 C 41.083114 49.062489 44.034755 48.308996 46.113281 46.230469 C 48.192716 44.151034 48.944683 41.19864 48.435547 38.246094 C 47.252008 38.243094 46.059091 38.154995 44.867188 37.980469 z M 36.054688 41.300781 C 35.081821 41.976088 34.057432 42.558679 32.996094 43.052734 C 34.554827 49.383253 33.156188 56.005923 28.599609 60.5625 C 25.047676 64.114436 20.240047 65.733598 15.292969 65.539062 C 16.300334 66.784341 17.391454 67.957174 18.554688 69.056641 C 23.344244 68.661385 27.849761 66.757661 31.322266 63.285156 C 36.986098 57.621324 38.49874 49.213826 36.054688 41.300781 z M 32.103516 43.451172 C 31.033462 43.890015 29.927136 44.236419 28.796875 44.5 C 29.664705 49.119995 28.518113 53.847121 25.201172 57.164062 C 21.885208 60.480028 17.157722 61.625652 12.537109 60.759766 C 12.490245 60.960702 12.425179 61.156265 12.373047 61.355469 C 13.027428 62.452873 13.735323 63.513778 14.5 64.53125 C 19.498644 64.94663 24.378585 63.435868 27.925781 59.888672 C 32.185324 55.629128 33.527899 49.449828 32.103516 43.451172 z M 15.603516 43.841797 C 15.070498 44.533756 14.500536 45.204541 13.869141 45.835938 C 13.237918 46.46716 12.568736 47.037425 11.876953 47.570312 C 12.222437 48.642635 12.495053 49.725949 12.699219 50.8125 C 14.533784 51.342802 16.438717 50.981203 17.726562 49.693359 C 19.013814 48.406107 19.37476 46.501267 18.845703 44.666016 C 17.758938 44.461757 16.676092 44.187492 15.603516 43.841797 z M 27.865234 44.708984 C 26.731614 44.923003 25.573581 45.042369 24.40625 45.085938 C 24.913468 48.260627 24.083123 51.481328 21.800781 53.763672 C 19.518956 56.045493 16.295637 56.877739 13.121094 56.371094 C 13.077504 57.538389 12.95816 58.696457 12.744141 59.830078 C 17.084867 60.634979 21.46044 59.55714 24.527344 56.490234 C 27.595555 53.422026 28.672125 49.049 27.865234 44.708984 z M 19.878906 44.841797 C 20.314038 46.836953 19.851148 48.918393 18.402344 50.367188 C 16.953246 51.816285 14.871572 52.281788 12.876953 51.845703 C 13.051239 53.037281 13.141715 54.228909 13.144531 55.412109 C 16.09738 55.922036 19.046648 55.17015 21.125 53.091797 C 23.20411 51.012688 23.957847 48.060457 23.447266 45.107422 C 22.264358 45.104422 21.070218 45.016115 19.878906 44.841797 z M 79.023438 46.355469 C 78.874578 46.516508 78.730497 46.681612 78.574219 46.837891 C 74.019758 51.392353 67.405207 52.784084 61.074219 51.226562 C 60.579314 52.291333 59.993671 53.31519 59.316406 54.291016 C 66.227329 56.42667 73.515677 55.541944 79.023438 51.509766 L 79.023438 46.355469 z M 11.066406 48.162109 C 10.093988 48.837101 9.0705889 49.42014 8.0097656 49.914062 C 8.0140281 49.936099 8.0171814 49.958446 8.0214844 49.980469 C 8.1125248 50.3549 8.1953073 50.729573 8.265625 51.105469 C 8.2663667 51.108703 8.2668355 51.112 8.2675781 51.115234 C 9.0035995 54.320592 10.162073 57.365114 11.697266 60.177734 C 12.522254 56.327568 12.307604 52.18107 11.066406 48.162109 z M 79.023438 52.65625 C 78.092716 53.290971 77.121967 53.847865 76.111328 54.318359 C 77.671692 60.649462 76.270488 67.272479 71.714844 71.828125 C 67.160487 76.382483 60.540178 77.771066 54.208984 76.212891 C 53.783311 77.128451 53.278752 78.006709 52.71875 78.857422 L 67.894531 78.857422 C 70.303559 77.884883 72.52839 76.459891 74.4375 74.550781 C 76.532483 72.455799 78.055404 69.984882 79.023438 67.302734 L 79.023438 52.65625 z M 75.216797 54.714844 C 74.146651 55.153805 73.040508 55.500022 71.910156 55.763672 C 72.778091 60.383748 71.633185 65.112906 68.316406 68.429688 C 64.999568 71.746525 60.272045 72.892721 55.652344 72.025391 C 55.389354 73.152823 55.040928 74.256647 54.603516 75.324219 C 60.602304 76.748708 66.781368 75.408091 71.039062 71.150391 C 75.297676 66.891779 76.64254 60.713728 75.216797 54.714844 z M 58.720703 55.105469 C 58.187481 55.797851 57.616119 56.467866 56.984375 57.099609 C 56.352874 57.731111 55.682384 58.302859 54.990234 58.835938 C 55.335627 59.907818 55.608336 60.988249 55.8125 62.074219 C 57.648438 62.605407 59.551893 62.244982 60.839844 60.957031 C 62.127794 59.669083 62.489751 57.76502 61.958984 55.929688 C 60.872945 55.725451 59.792584 55.451027 58.720703 55.105469 z M 70.978516 55.970703 C 69.845033 56.184727 68.688674 56.307997 67.521484 56.351562 C 68.028383 59.526637 67.196723 62.74859 64.914062 65.03125 C 62.632137 67.313175 59.410821 68.143668 56.236328 67.636719 C 56.192758 68.803945 56.071458 69.960257 55.857422 71.09375 C 60.197222 71.900213 64.570682 70.823847 67.638672 67.755859 C 70.706638 64.687894 71.785534 60.310875 70.978516 55.970703 z M 62.994141 56.107422 C 63.430516 58.102797 62.966455 60.183948 61.517578 61.632812 C 60.06876 63.08163 57.985899 63.546039 55.990234 63.109375 C 56.164672 64.301244 56.253008 65.494337 56.255859 66.677734 C 59.208581 67.188047 62.161557 66.436097 64.240234 64.357422 C 66.319774 62.277882 67.068894 59.326669 66.558594 56.373047 C 65.375451 56.370047 64.185696 56.281868 62.994141 56.107422 z M 54.179688 59.429688 C 53.206632 60.10502 52.184605 60.685664 51.123047 61.179688 C 52.682476 67.51109 51.280732 74.131372 46.724609 78.6875 C 46.665518 78.746591 46.602749 78.799395 46.542969 78.857422 L 51.585938 78.857422 C 55.449822 73.383332 56.27953 66.228028 54.179688 59.429688 z M 50.228516 61.576172 C 49.158636 62.014818 48.051934 62.363501 46.921875 62.626953 C 47.789276 67.246494 46.645299 71.973841 43.328125 75.291016 C 41.814248 76.804893 40.004682 77.862252 38.046875 78.486328 C 39.726386 78.727173 41.441184 78.857422 43.1875 78.857422 L 45.130859 78.857422 C 45.445583 78.588964 45.75399 78.31046 46.050781 78.013672 C 50.310139 73.754311 51.653677 67.575657 50.228516 61.576172 z M 33.732422 61.966797 C 33.199213 62.659142 32.627816 63.33117 31.996094 63.962891 C 31.364791 64.594195 30.693874 65.166303 30.001953 65.699219 C 30.34737 66.771168 30.622008 67.851345 30.826172 68.9375 C 32.660346 69.467246 34.566018 69.107809 35.853516 67.820312 C 37.140987 66.532843 37.501878 64.62827 36.972656 62.792969 C 35.886361 62.588757 34.804526 62.312269 33.732422 61.966797 z M 45.992188 62.835938 C 44.858646 63.049832 43.700465 63.169393 42.533203 63.212891 C 43.039886 66.386998 42.208425 69.609932 39.925781 71.892578 C 37.64404 74.174319 34.422426 75.004574 31.248047 74.498047 C 31.21982 75.255003 31.146332 76.005266 31.048828 76.75 C 32.547083 77.288187 34.092493 77.727392 35.675781 78.064453 C 38.294023 77.678563 40.728497 76.53908 42.650391 74.617188 C 45.718716 71.548864 46.798637 67.175515 45.992188 62.835938 z M 38.005859 62.96875 C 38.441071 64.96394 37.978261 67.04517 36.529297 68.494141 C 35.080269 69.943168 32.9982 70.408439 31.003906 69.972656 C 31.178287 71.164305 31.266635 72.353874 31.269531 73.537109 C 34.222346 74.046957 37.173776 73.296927 39.251953 71.21875 C 41.331235 69.139466 42.082358 66.184992 41.572266 63.232422 C 40.389193 63.229422 39.197343 63.14313 38.005859 62.96875 z M 29.189453 66.291016 C 28.216269 66.966459 27.196488 67.548878 26.134766 68.042969 C 26.691477 70.3028 26.864474 72.597758 26.658203 74.824219 C 27.785299 75.410126 28.947246 75.936473 30.140625 76.402344 C 30.54646 73.107947 30.228549 69.655384 29.189453 66.291016 z M 25.242188 68.439453 C 24.172286 68.878099 23.065641 69.224816 21.935547 69.488281 C 22.096976 70.348128 22.164648 71.20892 22.185547 72.066406 C 23.321713 72.888023 24.507132 73.645689 25.738281 74.332031 C 25.872604 72.397976 25.710274 70.409507 25.242188 68.439453 z M 79.023438 69.693359 C 78.564922 70.634834 78.04724 71.547889 77.443359 72.417969 C 77.967606 72.579948 78.495945 72.713157 79.023438 72.839844 L 79.023438 69.693359 z M 21.003906 69.697266 C 20.506254 69.791174 20.001493 69.859008 19.496094 69.917969 C 20.054404 70.409419 20.628383 70.88338 21.216797 71.339844 C 21.175267 70.793706 21.10571 70.245118 21.003906 69.697266 z M 76.845703 73.234375 C 76.312588 73.926585 75.742921 74.594969 75.111328 75.226562 C 74.479816 75.858075 73.809337 76.429808 73.117188 76.962891 C 73.319532 77.590968 73.488868 78.224108 73.642578 78.857422 L 77.830078 78.857422 C 78.489725 78.857422 79.023438 78.324217 79.023438 77.666016 L 79.023438 73.822266 C 78.294747 73.654566 77.567222 73.466948 76.845703 73.234375 z M 72.306641 77.556641 C 71.60467 78.043835 70.868594 78.465439 70.119141 78.857422 L 72.658203 78.857422 C 72.548553 78.423274 72.439974 77.988422 72.306641 77.556641 z "
       id="path11"
       transform="translate(0,4)" />
    <g
       transform="matrix(1.25,0,0,-1.25,-253.16188,384.69096)"
       inkscape:label="ink_ext_XXXXXX"
       id="g3366">
      <g
         transform="scale(0.1,0.1)"
         id="g3368" />
    </g>
    <text
       xml:space="preserve"
       style="font-style:normal;font-weight:normal;font-size:40px;line-height:1.25;font-family:sans-serif;letter-spacing:0px;word-spacing:0px;fill:#000000;fill-opacity:1;stroke:none"
       x="151.9817"
       y="37.2561"
       id="text2581"><tspan
         sodipodi:role="line"
         x="151.9817"
         y="71.338135"
         id="tspan2587" /></text>
  </g>
</svg>
